<svg width="177" height="206" viewBox="0 0 177 206" fill="none" xmlns="http://www.w3.org/2000/svg">
<path d="M166.806 127.127C166.308 126.754 165.808 126.385 165.304 126.02C166.058 124.496 166.767 122.946 167.43 121.373C167.927 121.776 168.42 122.183 168.908 122.594C168.25 124.129 167.548 125.64 166.806 127.127ZM11.3481 128.258C11.8041 127.809 12.2645 127.364 12.7292 126.923C13.417 128.273 14.1399 129.602 14.8963 130.91C14.4182 131.309 13.9437 131.713 13.4728 132.12C12.7332 130.852 12.0246 129.565 11.3481 128.258ZM19.8975 141.629C18.7821 140.192 17.7107 138.718 16.6852 137.211C17.1479 136.804 17.6147 136.401 18.0854 136.001C19.1426 137.563 20.2501 139.089 21.4056 140.575C20.8997 140.923 20.397 141.274 19.8975 141.629ZM28.0745 150.768C26.5659 149.303 25.1103 147.783 23.7106 146.212C24.2146 145.857 24.7219 145.505 25.2326 145.157C26.6704 146.762 28.1682 148.312 29.7223 149.805C29.1699 150.122 28.6206 150.443 28.0745 150.768ZM147.355 150.283C147.941 150.569 148.524 150.859 149.105 151.155C146.904 153.264 144.593 155.261 142.181 157.134C141.523 156.863 140.861 156.598 140.196 156.339C142.693 154.45 145.083 152.428 147.355 150.283ZM136.565 158.939C137.265 159.197 137.962 159.461 138.656 159.73C135.454 161.969 132.095 163.997 128.598 165.796C127.713 165.546 126.824 165.305 125.93 165.074C129.633 163.28 133.185 161.228 136.565 158.939ZM120.296 167.554C121.328 167.779 122.354 168.017 123.374 168.267C112.773 172.855 101.079 175.399 88.7896 175.399C77.8524 175.399 67.3875 173.385 57.7443 169.708C58.7519 169.413 59.7655 169.129 60.7851 168.858C69.5582 171.906 78.9813 173.561 88.7896 173.561C99.9168 173.561 110.549 171.43 120.296 167.554ZM44.405 161.12C47.8051 163.195 51.3618 165.04 55.0534 166.631C54.1723 166.902 53.2956 167.182 52.4237 167.472C48.9379 165.869 45.5759 164.043 42.3559 162.012C43.0352 161.709 43.7183 161.411 44.405 161.12ZM38.7178 159.588C36.3198 157.901 34.0106 156.096 31.7987 154.183C32.3616 153.857 32.9278 153.536 33.4972 153.219C35.7836 155.167 38.1741 156.996 40.6592 158.697C40.0087 158.988 39.3616 159.286 38.7178 159.588ZM150.953 146.677C152.526 145.003 154.033 143.266 155.469 141.47C156 141.787 156.527 142.107 157.052 142.432C155.65 144.195 154.183 145.903 152.652 147.551C152.088 147.255 151.522 146.964 150.953 146.677ZM163.935 132.411C162.884 134.195 161.771 135.941 160.599 137.642C160.079 137.317 159.556 136.996 159.03 136.679C160.236 134.932 161.38 133.139 162.455 131.301C162.953 131.667 163.446 132.037 163.935 132.411ZM3.48233 88.2544C3.48233 99.1088 5.50983 109.491 9.20754 119.043C8.71924 119.483 8.23507 119.927 7.75512 120.375C3.81207 110.437 1.64453 99.5996 1.64453 88.2544C1.64453 40.1255 40.6608 1.10938 88.7896 1.10938C136.919 1.10938 175.935 40.1255 175.935 88.2544C175.935 97.3997 174.526 106.215 171.914 114.494C171.402 114.086 170.886 113.681 170.367 113.28C172.792 105.365 174.096 96.9614 174.096 88.2544C174.096 41.1406 135.903 2.94718 88.7896 2.94718C41.6757 2.94718 3.48233 41.1406 3.48233 88.2544Z" stroke="#A99B43" stroke-width="1.5"/>
<path d="M106.685 70.5916L90.4597 57.6113L74.2344 70.5916V73.8367H77.4793V90.062H85.5921V83.5718C85.5921 82.2809 86.1049 81.0428 87.0177 80.1299C87.9306 79.217 89.1687 78.7042 90.4597 78.7042C91.7506 78.7042 92.9887 79.217 93.9016 80.1299C94.8144 81.0428 95.3272 82.2809 95.3272 83.5718V90.062H103.44V73.8367H106.685V70.5916Z" fill="black"/>
<path d="M72.2376 79.6293L60.9746 74.8926L54.7578 85.4113L55.3886 87.3183L57.1365 86.74L60.2904 96.2748L64.6604 94.8292L63.3989 91.0153C63.1479 90.2568 63.1835 89.4378 63.4977 88.7386C63.812 88.0396 64.3793 87.5176 65.0747 87.2877C65.7701 87.0576 66.5366 87.1384 67.2057 87.5121C67.8749 87.8859 68.3918 88.5222 68.6427 89.2807L69.9044 93.0946L74.2743 91.6491L71.1204 82.1145L72.8684 81.5362L72.2376 79.6293Z" fill="black"/>
<path d="M107.176 78.3751L117.62 72.9062L125.247 81.8947L124.896 83.7019L123.089 83.35L121.329 92.3859L116.811 91.506L117.515 87.8916C117.654 87.1726 117.504 86.4275 117.095 85.8202C116.685 85.2127 116.051 84.7929 115.332 84.6529C114.614 84.5128 113.868 84.6642 113.261 85.0735C112.653 85.4829 112.233 86.1168 112.094 86.8357L111.389 90.4501L106.872 89.5702L108.631 80.5342L106.824 80.1823L107.176 78.3751Z" fill="black"/>
<path d="M53.9456 89.6817L48.8792 88.25L46.9844 93.162L47.3808 93.9549L48.077 93.6069L50.0592 97.5717L51.7995 96.7017L51.0066 95.1158C50.8488 94.8003 50.8076 94.4427 50.8919 94.1217C50.9762 93.8009 51.1791 93.5427 51.4562 93.4043C51.7331 93.2658 52.0613 93.2583 52.3686 93.3834C52.676 93.5087 52.9373 93.7562 53.0949 94.0716L53.8878 95.6576L55.6281 94.7876L53.6459 90.8228L54.342 90.4746L53.9456 89.6817Z" fill="black"/>
<path d="M126.005 88.1304L130.662 85.9434L133.496 90.2374L133.269 91.0474L132.519 90.8368L131.381 94.8872L129.507 94.3606L129.963 92.7403C130.053 92.4181 130.022 92.0757 129.875 91.7886C129.729 91.5013 129.479 91.293 129.18 91.2091C128.883 91.1253 128.561 91.1729 128.286 91.3415C128.012 91.5101 127.806 91.786 127.715 92.1082L127.26 93.7285L125.387 93.2017L126.525 89.1511L125.777 88.9405L126.005 88.1304Z" fill="black"/>
<mask id="mask0_575_109" style="mask-type:luminance" maskUnits="userSpaceOnUse" x="79" y="27" width="18" height="17">
<path d="M96.5718 27.0605H79.8828V43.7495H96.5718V27.0605Z" fill="white"/>
</mask>
<g mask="url(#mask0_575_109)">
<path d="M88.2273 27.7578C88.4117 27.7578 88.5885 27.8312 88.719 27.9615C88.8494 28.0919 88.9226 28.2689 88.9226 28.4532V29.844C88.9226 30.0284 88.8494 30.2052 88.719 30.3357C88.5885 30.4661 88.4117 30.5394 88.2273 30.5394C88.0428 30.5394 87.866 30.4661 87.7356 30.3357C87.6051 30.2052 87.5319 30.0284 87.5319 29.844V28.4532C87.5319 28.2689 87.6051 28.0919 87.7356 27.9615C87.866 27.8312 88.0428 27.7578 88.2273 27.7578ZM79.8828 36.1023C79.8828 35.918 79.956 35.741 80.0865 35.6106C80.2169 35.4803 80.3937 35.4069 80.5782 35.4069H81.9689C82.1534 35.4069 82.3302 35.4803 82.4606 35.6106C82.5911 35.741 82.6643 35.918 82.6643 36.1023C82.6643 36.2868 82.5911 36.4637 82.4606 36.594C82.3302 36.7244 82.1534 36.7977 81.9689 36.7977H80.5782C80.3937 36.7977 80.2169 36.7244 80.0865 36.594C79.956 36.4637 79.8828 36.2868 79.8828 36.1023ZM93.7902 36.1023C93.7902 35.918 93.8636 35.741 93.9939 35.6106C94.1243 35.4803 94.3011 35.4069 94.4856 35.4069H95.8764C96.0608 35.4069 96.2376 35.4803 96.3681 35.6106C96.4985 35.741 96.5717 35.918 96.5717 36.1023C96.5717 36.2868 96.4985 36.4637 96.3681 36.594C96.2376 36.7244 96.0608 36.7977 95.8764 36.7977H94.4856C94.3011 36.7977 94.1243 36.7244 93.9939 36.594C93.8636 36.4637 93.7902 36.2868 93.7902 36.1023ZM94.1276 30.2021C94.2579 30.3324 94.3311 30.5093 94.3311 30.6938C94.3311 30.8781 94.2579 31.055 94.1276 31.1853L93.1442 32.1686C93.0131 32.2953 92.8374 32.3654 92.6552 32.3637C92.4728 32.3622 92.2983 32.289 92.1695 32.1602C92.0405 32.0312 91.9674 31.8569 91.9658 31.6745C91.9643 31.4922 92.0343 31.3166 92.1609 31.1853L93.1442 30.2021C93.2747 30.0717 93.4515 29.9985 93.6359 29.9985C93.8202 29.9985 93.9971 30.0717 94.1276 30.2021ZM82.3271 30.2021C82.4574 30.0717 82.6343 29.9985 82.8186 29.9985C83.003 29.9985 83.1798 30.0717 83.3103 30.2021L84.2936 31.1853C84.3615 31.2491 84.416 31.3259 84.4538 31.4111C84.4914 31.4963 84.5117 31.5881 84.5132 31.6814C84.5147 31.7745 84.4974 31.8669 84.4625 31.9533C84.4275 32.0397 84.3756 32.1182 84.3098 32.1842C84.2439 32.25 84.1655 32.3021 84.0791 32.337C83.9928 32.372 83.9003 32.3894 83.8071 32.3879C83.714 32.3864 83.622 32.3663 83.5368 32.3286C83.4516 32.291 83.3748 32.2365 83.3109 32.1686L82.3271 31.1861C82.1967 31.0556 82.1234 30.8789 82.1234 30.6944C82.1234 30.51 82.1967 30.3324 82.3271 30.2021ZM84.7505 41.6654C84.7505 41.4809 84.8237 41.304 84.954 41.1737C85.0845 41.0432 85.2614 40.97 85.4457 40.97H91.0088C91.1931 40.97 91.3701 41.0432 91.5005 41.1737C91.6308 41.304 91.7042 41.4809 91.7042 41.6654C91.7042 41.8497 91.6308 42.0266 91.5005 42.1571C91.3701 42.2874 91.1931 42.3606 91.0088 42.3606H85.4457C85.2614 42.3606 85.0845 42.2874 84.954 42.1571C84.8237 42.0266 84.7505 41.8497 84.7505 41.6654ZM93.7902 38.8838H92.2208C92.7911 38.0685 93.0963 37.0973 93.0948 36.1023C93.0948 33.4169 90.9128 31.2347 88.2273 31.2347C85.5417 31.2347 83.3597 33.4169 83.3597 36.1023C83.3597 37.1336 83.6789 38.0946 84.2268 38.8838H82.6643C82.4799 38.8838 82.3029 38.9571 82.1726 39.0875C82.0422 39.2178 81.9689 39.3948 81.9689 39.5792C81.9689 39.7637 82.0422 39.9405 82.1726 40.0709C82.3029 40.2014 82.4799 40.2746 82.6643 40.2746H93.7902C93.9747 40.2746 94.1516 40.2014 94.2819 40.0709C94.4124 39.9405 94.4856 39.7637 94.4856 39.5792C94.4856 39.3948 94.4124 39.2178 94.2819 39.0875C94.1516 38.9571 93.9747 38.8838 93.7902 38.8838Z" fill="#F52121"/>
</g>
<path d="M151.679 90.8857L150.787 100.743C150.748 101.171 150.541 101.567 150.211 101.843C149.879 102.118 149.453 102.251 149.024 102.213C148.597 102.174 148.201 101.966 147.925 101.636C147.649 101.305 147.517 100.879 147.556 100.45L148.448 90.5931C146.594 90.8022 144.727 90.3664 143.156 89.3593C141.587 88.3522 140.413 86.8353 139.831 85.0636C139.249 83.292 139.295 81.3739 139.961 79.6323C140.627 77.8906 141.874 76.4317 143.489 75.5011C144.052 73.7436 145.198 72.2302 146.735 71.2105C148.274 70.191 150.113 69.726 151.951 69.8925C153.79 70.0588 155.515 70.8466 156.845 72.126C158.176 73.4053 159.029 75.0997 159.268 76.9297C160.69 78.1354 161.654 79.7944 161.996 81.6274C162.34 83.4604 162.04 85.3555 161.15 86.9938C160.259 88.6321 158.831 89.9136 157.106 90.6225C155.381 91.3312 153.464 91.4242 151.679 90.8857Z" fill="black"/>
<mask id="mask1_575_109" style="mask-type:luminance" maskUnits="userSpaceOnUse" x="3" y="64" width="48" height="49">
<path d="M37.1328 64.8914L3.11328 78.7012L16.923 112.721L50.9426 98.911L37.1328 64.8914Z" fill="white"/>
</mask>
<g mask="url(#mask1_575_109)">
<path d="M19.7878 78.2955C12.4842 76.2193 9.21462 82.1676 11.5723 85.5591C9.48342 87.6973 9.55527 90.3838 11.8303 91.7971C10.2523 94.3308 12.364 95.4294 14.4615 95.4465C12.1833 100.731 17.8747 101.576 20.0679 98.0199C21.9892 97.6348 25.0384 95.8725 24.9325 94.4034C26.0235 93.8817 26.781 92.7546 27.2826 91.9329C28.0561 92.5242 29.0788 92.9442 29.9304 92.8525C31.1715 92.4682 31.4223 92.0442 31.8291 91.05C33.7353 91.7955 37.1646 90.3291 38.5959 89.2741C46.9384 90.8479 43.7815 81.313 38.9455 81.2502C39.5931 78.3313 36.9208 75.4386 34.2889 74.5912C34.4826 70.6356 30.3519 71.1576 28.6137 72.1867C23.8635 70.5045 20.397 75.3753 19.7878 78.2955ZM25.5849 73.4428C26.172 73.2046 26.8411 73.4874 27.0795 74.0745C27.3178 74.6616 27.0351 75.3307 26.448 75.569C25.8609 75.8074 25.1916 75.5247 24.9532 74.9376C24.7149 74.3503 24.9976 73.6812 25.5849 73.4428ZM31.4017 73.1896C31.9888 72.9513 32.6581 73.2342 32.8963 73.8213C33.1347 74.4084 32.8519 75.0775 32.2648 75.3158C31.6777 75.5542 31.0086 75.2715 30.7702 74.6844C30.5319 74.0971 30.8145 73.428 31.4017 73.1896ZM14.841 80.1297C15.4282 79.8913 16.0974 80.1741 16.3357 80.7612C16.5741 81.3483 16.2913 82.0174 15.7042 82.2558C15.117 82.4941 14.4478 82.2115 14.2095 81.6243C13.9711 81.0372 14.2539 80.368 14.841 80.1297ZM27.7501 77.0823C28.3372 76.8439 29.0064 77.1267 29.2447 77.7138C29.4831 78.301 29.2003 78.9701 28.6132 79.2085C28.026 79.4468 27.3568 79.1641 27.1185 78.5769C26.8801 77.9898 27.163 77.3206 27.7501 77.0823ZM19.9566 80.5296C20.5438 80.2912 21.213 80.574 21.4513 81.1612C21.6897 81.7483 21.4069 82.4175 20.8197 82.6558C20.2326 82.8942 19.5634 82.6114 19.3251 82.0243C19.0867 81.4371 19.3695 80.7679 19.9566 80.5296ZM24.438 80.8405C25.0252 80.6022 25.6944 80.8851 25.9327 81.4722C26.1709 82.0593 25.8883 82.7284 25.3011 82.9668C24.714 83.2051 24.0448 82.9224 23.8065 82.3353C23.5681 81.748 23.8509 81.0789 24.438 80.8405ZM33.577 77.4772C34.1643 77.2389 34.8334 77.5216 35.0718 78.1087C35.3101 78.6959 35.0274 79.3651 34.4401 79.6035C33.853 79.8418 33.1839 79.5591 32.9455 78.9718C32.7072 78.3847 32.9899 77.7156 33.577 77.4772ZM14.4556 87.2809C15.0429 87.0426 15.712 87.3253 15.9504 87.9124C16.1887 88.4995 15.906 89.1688 15.3189 89.407C14.7318 89.6454 14.0625 89.3626 13.8241 88.7755C13.5858 88.1884 13.8685 87.5193 14.4556 87.2809ZM28.5249 83.5267C29.112 83.2884 29.7811 83.5711 30.0195 84.1582C30.2578 84.7455 29.9751 85.4145 29.388 85.653C28.8007 85.8913 28.1316 85.6086 27.8932 85.0213C27.6549 84.4342 27.9378 83.7651 28.5249 83.5267ZM23.5209 87.0016C24.108 86.7633 24.7771 87.0462 25.0155 87.6333C25.2538 88.2204 24.9711 88.8895 24.384 89.1279C23.7967 89.3662 23.1276 89.0835 22.8892 88.4964C22.6509 87.9091 22.9338 87.24 23.5209 87.0016ZM34.506 82.0532C35.0931 81.8149 35.7622 82.0977 36.0006 82.6849C36.2389 83.272 35.9562 83.9412 35.3691 84.1795C34.7818 84.4179 34.1127 84.1351 33.8743 83.548C33.636 82.9608 33.9187 82.2916 34.506 82.0532ZM14.4273 91.0227C15.0144 90.7843 15.6835 91.0671 15.9219 91.6542C16.1602 92.2413 15.8775 92.9106 15.2904 93.1489C14.7033 93.3871 14.034 93.1045 13.7956 92.5173C13.5573 91.9302 13.84 91.261 14.4273 91.0227ZM20.6512 91.3923C21.2385 91.1539 21.9076 91.4367 22.146 92.0238C22.3843 92.611 22.1016 93.2802 21.5143 93.5185C20.9272 93.7569 20.2581 93.4741 20.0197 92.887C19.7814 92.2998 20.0641 91.6306 20.6512 91.3923ZM35.2462 86.2285C35.8335 85.9902 36.5026 86.2729 36.741 86.8602C36.9793 87.4473 36.6966 88.1164 36.1093 88.3548C35.5222 88.5931 34.8531 88.3104 34.6147 87.7233C34.3764 87.136 34.6591 86.4669 35.2462 86.2285ZM29.5878 89.0029C30.1749 88.7646 30.844 89.0473 31.0824 89.6346C31.3207 90.2217 31.038 90.8908 30.4509 91.1292C29.8636 91.3675 29.1945 91.0848 28.9561 90.4977C28.7178 89.9104 29.0005 89.2413 29.5878 89.0029ZM40.7412 85.3747C41.3283 85.1364 41.9976 85.4191 42.2359 86.0062C42.4743 86.5933 42.1914 87.2626 41.6043 87.5008C41.0172 87.7392 40.348 87.4564 40.1097 86.8693C39.8713 86.2822 40.1541 85.6131 40.7412 85.3747ZM15.891 96.9243C16.4781 96.6859 17.1472 96.9687 17.3857 97.5558C17.6241 98.143 17.3412 98.8122 16.7541 99.0504C16.167 99.2887 15.4978 99.0059 15.2595 98.4188C15.0211 97.8317 15.3039 97.1626 15.891 96.9243ZM27.6781 93.7155C27.5358 93.9184 27.3825 94.1136 27.2191 94.3C28.656 97.2244 30.2925 100.384 30.754 103.822C28.1131 105.651 26.9385 106.247 25.0635 108.13L42.0163 101.225C39.8499 100.962 37.7704 101.373 34.5514 102.146C32.7225 99.8199 31.6033 96.7972 30.7297 93.9876C29.7372 94.2981 28.5075 94.11 27.6781 93.7155Z" fill="black"/>
</g>
<mask id="mask2_575_109" style="mask-type:luminance" maskUnits="userSpaceOnUse" x="157" y="101" width="15" height="15">
<path d="M171.688 106.954L162.816 101.973L157.835 110.844L166.707 115.826L171.688 106.954Z" fill="white"/>
</mask>
<g mask="url(#mask2_575_109)">
<path d="M168.298 105.505C168.166 105.771 167.839 106.416 167.382 107.242C167.445 107.271 167.5 107.299 167.541 107.355C167.772 107.675 167.727 108.128 167.517 108.493C167.307 108.858 166.893 109.148 166.363 109.083C166.345 109.081 166.329 109.078 166.311 109.075C165.469 110.436 164.479 111.838 163.533 112.654C163.26 112.861 162.952 112.994 162.669 113.102L163.623 113.647C164.1 113.637 164.445 113.484 164.704 113.196L164.97 113.436C164.748 113.683 164.463 113.85 164.13 113.937L166.597 115.348C166.65 115.046 166.77 114.385 166.927 113.933C167.796 111.449 170.181 107.132 170.422 106.698L168.298 105.505ZM162.756 102.826L162.589 103.159C162.781 103.542 162.912 103.885 163.039 104.222C163.372 104.154 163.371 103.73 163.32 103.488C163.135 103.262 162.948 103.041 162.756 102.826ZM163.687 103.945C163.629 104.244 163.458 104.491 163.171 104.561C163.399 105.133 163.681 105.717 164.313 106.47C164.772 106.213 164.949 105.828 164.845 105.385C164.449 104.914 164.07 104.425 163.687 103.945ZM162.72 104.381L159.88 109.439L160.192 109.614L162.889 104.809C162.829 104.665 162.774 104.523 162.72 104.381ZM165.223 105.82C165.199 105.995 165.139 106.154 165.048 106.292C164.925 106.481 164.752 106.63 164.553 106.746C164.791 107.009 165.07 107.293 165.403 107.603L165.442 107.639L165.456 107.691C165.52 107.951 165.679 108.208 165.865 108.4C166.053 108.592 166.272 108.711 166.407 108.728C166.791 108.775 167.053 108.581 167.208 108.315C167.353 108.059 167.362 107.751 167.263 107.587C166.485 107.111 165.826 106.494 165.223 105.82ZM163.999 106.648L161.821 110.529L162.132 110.704L164.248 106.937C164.163 106.842 164.08 106.746 163.999 106.648ZM159.297 109.544L159.121 109.856L162.171 111.569L162.346 111.257L159.297 109.544Z" fill="black"/>
</g>
<mask id="mask3_575_109" style="mask-type:luminance" maskUnits="userSpaceOnUse" x="6" y="97" width="22" height="22">
<path d="M19.578 97.2999L6.60156 105.027L14.329 118.004L27.3055 110.276L19.578 97.2999Z" fill="white"/>
</mask>
<g mask="url(#mask3_575_109)">
<path fill-rule="evenodd" clip-rule="evenodd" d="M20.6944 102.865C20.9386 103.275 21.0184 103.762 20.9179 104.229C20.8173 104.696 20.5437 105.107 20.1522 105.38L19.8183 106.696C20.2824 106.949 20.6956 107.406 21.0904 107.953C21.4915 108.508 21.8997 109.194 22.3383 109.93L22.5048 110.21L21.964 110.532L21.8031 110.261C21.358 109.514 20.9635 108.852 20.5804 108.321C20.2447 107.857 19.9378 107.522 19.6407 107.323C19.2913 107.473 18.8989 107.486 18.5265 107.436C18.0873 107.378 17.6382 107.227 17.2426 107.06C16.8612 106.897 16.4913 106.709 16.1355 106.495C15.9219 106.963 15.5241 107.409 14.9853 107.73C13.8655 108.397 12.5614 108.271 12.0723 107.45C11.6226 106.695 12.0184 105.615 12.9556 104.927C12.9231 104.084 13.6072 103.057 14.7333 102.387C16.006 101.629 17.4106 101.584 18.0711 102.23L18.1065 102.209C18.5365 101.953 19.0509 101.878 19.5363 102.001C20.0217 102.124 20.4382 102.435 20.6944 102.865ZM17.5498 104.947C17.284 105.211 16.9869 105.44 16.6651 105.631C16.5475 105.701 16.4293 105.764 16.3104 105.822L16.3072 105.864C16.3699 105.902 16.4515 105.952 16.5486 106.008C16.8685 106.195 17.2003 106.36 17.542 106.503L17.5185 106.464C17.8171 106.286 18.0346 105.938 18.1803 105.59C18.1917 105.564 18.2023 105.538 18.2122 105.512C17.9502 105.378 17.7234 105.185 17.5498 104.947ZM18.8137 105.701C19.017 105.729 19.2235 105.724 19.4251 105.686L19.1386 106.816C18.9825 106.84 18.8061 106.839 18.6096 106.813C18.4684 106.793 18.3288 106.764 18.1912 106.727C18.4618 106.454 18.6429 106.114 18.7606 105.835C18.7798 105.789 18.7975 105.744 18.8137 105.701Z" fill="black"/>
<path d="M15.3053 110.104C15.4844 109.997 15.6137 109.823 15.6648 109.621C15.716 109.419 15.6846 109.205 15.5777 109.025C15.4709 108.846 15.2972 108.717 15.095 108.666C14.8926 108.615 14.6784 108.646 14.4992 108.753C14.3201 108.86 14.1906 109.033 14.1396 109.236C14.1143 109.336 14.1089 109.44 14.1239 109.542C14.1389 109.644 14.1737 109.743 14.2266 109.831C14.2796 109.92 14.3495 109.998 14.4323 110.059C14.5152 110.121 14.6093 110.166 14.7095 110.191C14.9118 110.242 15.126 110.211 15.3053 110.104ZM14.0568 112.312C14.2359 112.205 14.3654 112.032 14.4164 111.829C14.4675 111.627 14.4362 111.413 14.3292 111.234C14.2224 111.055 14.0487 110.925 13.8465 110.874C13.6442 110.823 13.43 110.854 13.2507 110.961C13.0716 111.068 12.9422 111.242 12.8912 111.444C12.84 111.646 12.8714 111.861 12.9782 112.04C13.0851 112.219 13.2588 112.348 13.461 112.399C13.6634 112.45 13.8776 112.419 14.0568 112.312ZM18.9251 108.497C18.978 108.586 19.013 108.684 19.028 108.786C19.0428 108.888 19.0376 108.993 19.0122 109.093C18.9869 109.193 18.9422 109.287 18.8804 109.37C18.8187 109.453 18.7413 109.522 18.6525 109.575C18.4734 109.682 18.2592 109.714 18.0569 109.663C17.8547 109.611 17.681 109.482 17.574 109.303C17.5211 109.214 17.4861 109.116 17.4713 109.014C17.4563 108.912 17.4617 108.807 17.4869 108.707C17.538 108.505 17.6675 108.331 17.8466 108.224C18.0257 108.117 18.24 108.086 18.4422 108.137C18.6446 108.188 18.8183 108.318 18.9251 108.497ZM15.3296 110.455C15.473 110.37 15.6444 110.345 15.8063 110.386C15.968 110.427 16.1069 110.53 16.1922 110.674L16.5143 111.214L17.055 110.892C17.1984 110.807 17.3699 110.782 17.5316 110.823C17.6934 110.864 17.8322 110.968 17.9177 111.111C18.003 111.254 18.0279 111.426 17.987 111.588C17.9459 111.749 17.8424 111.888 17.699 111.974L16.6175 112.618C16.4741 112.703 16.3026 112.728 16.1409 112.687C15.9791 112.646 15.8403 112.542 15.7548 112.399L15.1109 111.318C15.0255 111.174 15.0006 111.003 15.0416 110.841C15.0827 110.679 15.1862 110.54 15.3296 110.455ZM14.9439 112.882C14.8584 112.738 14.7195 112.635 14.5578 112.594C14.396 112.553 14.2245 112.578 14.0811 112.663C13.9377 112.749 13.8342 112.887 13.7931 113.049C13.7522 113.211 13.7771 113.382 13.8624 113.526L14.6675 114.878C14.7528 115.02 14.8917 115.124 15.0534 115.166C15.2153 115.206 15.3867 115.182 15.5301 115.097L16.6115 114.452C16.7549 114.366 16.8585 114.228 16.8995 114.066C16.9404 113.905 16.9155 113.733 16.8302 113.59C16.7448 113.446 16.6059 113.343 16.4441 113.302C16.2824 113.261 16.1109 113.286 15.9675 113.371L15.4268 113.693L14.9439 112.882ZM18.9474 109.765C18.804 109.851 18.7004 109.99 18.6593 110.151C18.6183 110.313 18.6432 110.485 18.7286 110.628L19.2116 111.439L18.671 111.761C18.5276 111.846 18.4239 111.985 18.383 112.147C18.3419 112.309 18.3668 112.48 18.4523 112.624C18.5376 112.767 18.6765 112.871 18.8382 112.912C19.0001 112.953 19.1715 112.928 19.3149 112.842L20.3963 112.198C20.5397 112.113 20.6433 111.974 20.6843 111.813C20.7252 111.651 20.7003 111.479 20.615 111.336L19.8101 109.984C19.7246 109.841 19.5858 109.737 19.424 109.696C19.2623 109.655 19.0908 109.68 18.9474 109.765Z" fill="black"/>
</g>
<mask id="mask4_575_109" style="mask-type:luminance" maskUnits="userSpaceOnUse" x="163" y="93" width="9" height="9">
<path d="M171.116 93.8164H163.328V101.605H171.116V93.8164Z" fill="white"/>
</mask>
<g mask="url(#mask4_575_109)">
<path d="M168.678 94.3027C168.414 94.5078 168.24 94.7779 168.204 95.0401C168.254 95.0521 168.312 95.0644 168.383 95.0719C168.509 95.0872 168.662 95.0947 168.813 95.0947C168.965 95.0947 169.119 95.0872 169.244 95.0719C169.311 95.0644 169.368 95.0538 169.416 95.0433C169.392 94.95 169.347 94.8238 169.275 94.6993C169.191 94.5549 169.076 94.4128 168.947 94.3044C168.917 94.3282 168.873 94.3563 168.813 94.3563C168.752 94.3563 168.708 94.3269 168.678 94.3027ZM164.307 94.5612C164.043 94.7662 163.869 95.0364 163.835 95.2986C163.883 95.3107 163.941 95.323 164.012 95.3305C164.138 95.3452 164.291 95.3527 164.442 95.3527C164.594 95.3527 164.748 95.3452 164.871 95.3305C164.939 95.323 164.997 95.3124 165.044 95.3017C165.021 95.2084 164.975 95.0823 164.904 94.9578C164.82 94.8133 164.706 94.6713 164.576 94.5628C164.546 94.5867 164.502 94.6147 164.442 94.6147C164.382 94.6147 164.337 94.5853 164.307 94.5612ZM168.449 95.3542V95.6251C168.458 95.6326 168.479 95.6448 168.512 95.6569C168.543 95.6676 168.587 95.6767 168.632 95.6844C168.651 95.5536 168.713 95.3893 168.813 95.3893C168.914 95.3893 168.974 95.5536 168.995 95.6829C169.04 95.6767 169.08 95.6676 169.115 95.6569C169.148 95.6448 169.169 95.6326 169.178 95.6251V95.3542C169.062 95.3634 168.938 95.368 168.813 95.368C168.689 95.368 168.564 95.3634 168.449 95.3542ZM164.078 95.6128V95.8836C164.087 95.8912 164.108 95.9034 164.141 95.9155C164.174 95.9262 164.216 95.9353 164.262 95.943C164.282 95.8122 164.343 95.6479 164.442 95.6479C164.543 95.6479 164.604 95.8122 164.624 95.9415C164.67 95.9353 164.711 95.9262 164.744 95.9155C164.777 95.9034 164.798 95.8912 164.807 95.8836V95.6128C164.691 95.622 164.567 95.6266 164.442 95.6266C164.318 95.6266 164.193 95.622 164.078 95.6128ZM165.8 95.8897C165.462 96.1453 165.24 96.4875 165.204 96.8221C165.264 96.8374 165.342 96.8556 165.441 96.8662C165.593 96.8845 165.777 96.8937 165.96 96.8937C166.142 96.8937 166.325 96.8845 166.476 96.8662C166.574 96.8556 166.649 96.8389 166.71 96.8221C166.686 96.7066 166.628 96.5439 166.535 96.3841C166.43 96.2031 166.284 96.0252 166.118 95.8927C166.113 95.8959 166.11 95.9004 166.106 95.9034C166.073 95.9308 166.025 95.9613 165.96 95.9613C165.894 95.9613 165.848 95.9308 165.813 95.9034L165.8 95.8897ZM165.497 97.1476V97.5127C165.497 97.5127 165.497 97.5127 165.501 97.5159C165.513 97.5265 165.546 97.5462 165.591 97.5615C165.633 97.5751 165.683 97.5858 165.741 97.5949C165.759 97.4352 165.833 97.2192 165.96 97.2192C166.086 97.2192 166.16 97.4352 166.179 97.5949C166.236 97.5858 166.287 97.5751 166.328 97.5615C166.373 97.5462 166.406 97.5265 166.418 97.5159C166.422 97.5127 166.422 97.5127 166.422 97.5127V97.1476C166.278 97.1614 166.119 97.1674 165.96 97.1674C165.801 97.1674 165.642 97.1614 165.497 97.1476ZM169.293 97.1583C168.755 97.5478 168.401 98.0893 168.365 98.6217C168.458 98.6506 168.6 98.6809 168.767 98.6992C168.989 98.7267 169.254 98.7388 169.521 98.7388C169.787 98.7388 170.052 98.7267 170.276 98.6992C170.436 98.6809 170.576 98.6521 170.67 98.6232C170.646 98.4436 170.556 98.1805 170.403 97.9159C170.24 97.636 170.012 97.3576 169.749 97.1583C169.73 97.1736 169.71 97.1949 169.694 97.21C169.65 97.2451 169.593 97.2801 169.521 97.2801C169.448 97.2801 169.391 97.2451 169.347 97.21C169.331 97.1964 169.311 97.1751 169.293 97.1583ZM164.837 98.1684C164.217 98.611 163.811 99.2362 163.773 99.8476C163.881 99.8827 164.048 99.9177 164.241 99.9405C164.493 99.9694 164.793 99.9846 165.093 99.9846C165.392 99.9846 165.692 99.9694 165.942 99.9405C166.136 99.9177 166.302 99.8827 166.41 99.8476C166.382 99.6423 166.275 99.3366 166.1 99.0339C165.914 98.7145 165.653 98.395 165.348 98.1684C165.326 98.1912 165.299 98.2186 165.276 98.2353C165.228 98.2749 165.168 98.3113 165.093 98.3113C165.017 98.3113 164.957 98.2749 164.909 98.2353C164.886 98.2186 164.859 98.1897 164.837 98.1684ZM168.792 98.9776V99.58C168.792 99.5892 168.792 99.5952 168.819 99.618C168.845 99.6408 168.899 99.6712 168.968 99.694C169.034 99.7153 169.113 99.7336 169.199 99.7458C169.214 99.5176 169.322 99.1465 169.521 99.1465C169.719 99.1465 169.827 99.5176 169.844 99.7458C169.928 99.7336 170.007 99.7153 170.073 99.694C170.142 99.6712 170.196 99.6408 170.222 99.618C170.249 99.5952 170.249 99.5892 170.249 99.58V98.9776C170.025 99.0019 169.775 99.0126 169.521 99.0126C169.266 99.0126 169.016 99.0019 168.792 98.9776ZM164.256 100.216V100.912C164.256 100.928 164.259 100.94 164.292 100.969C164.325 100.996 164.387 101.03 164.466 101.057C164.541 101.081 164.631 101.101 164.729 101.115C164.741 100.862 164.861 100.426 165.093 100.426C165.324 100.426 165.444 100.862 165.456 101.115C165.555 101.101 165.645 101.081 165.719 101.057C165.798 101.03 165.861 100.996 165.893 100.969C165.926 100.94 165.929 100.928 165.929 100.912V100.216C165.674 100.245 165.383 100.258 165.093 100.258C164.802 100.258 164.511 100.245 164.256 100.216Z" fill="black"/>
</g>
<path d="M149.422 117.516L147.38 115.525C115.82 84.747 65.2849 85.3803 34.506 116.94L32.5156 118.981" stroke="black" stroke-width="1.6689" stroke-linecap="round" stroke-linejoin="round"/>
<path d="M88.15 112.673C88.4573 112.673 88.7063 112.424 88.7063 112.117C88.7063 111.81 88.4573 111.561 88.15 111.561C87.8428 111.561 87.5938 111.81 87.5938 112.117C87.5938 112.424 87.8428 112.673 88.15 112.673Z" fill="black"/>
<path d="M95.9391 119.351C96.2463 119.351 96.4954 119.102 96.4954 118.795C96.4954 118.487 96.2463 118.238 95.9391 118.238C95.6319 118.238 95.3828 118.487 95.3828 118.795C95.3828 119.102 95.6319 119.351 95.9391 119.351Z" fill="black"/>
<path d="M81.4782 119.351C81.7854 119.351 82.0345 119.102 82.0345 118.795C82.0345 118.487 81.7854 118.238 81.4782 118.238C81.1709 118.238 80.9219 118.487 80.9219 118.795C80.9219 119.102 81.1709 119.351 81.4782 119.351Z" fill="black"/>
<path d="M78.1383 112.673C78.4456 112.673 78.6946 112.424 78.6946 112.117C78.6946 111.81 78.4456 111.561 78.1383 111.561C77.8311 111.561 77.582 111.81 77.582 112.117C77.582 112.424 77.8311 112.673 78.1383 112.673Z" fill="black"/>
<path d="M83.7047 108.224C84.012 108.224 84.261 107.975 84.261 107.668C84.261 107.36 84.012 107.111 83.7047 107.111C83.3975 107.111 83.1484 107.36 83.1484 107.668C83.1484 107.975 83.3975 108.224 83.7047 108.224Z" fill="black"/>
<path d="M91.4899 107.111C91.7971 107.111 92.0462 106.862 92.0462 106.554C92.0462 106.247 91.7971 105.998 91.4899 105.998C91.1827 105.998 90.9336 106.247 90.9336 106.554C90.9336 106.862 91.1827 107.111 91.4899 107.111Z" fill="black"/>
<path d="M99.279 108.224C99.5862 108.224 99.8353 107.975 99.8353 107.668C99.8353 107.36 99.5862 107.111 99.279 107.111C98.9717 107.111 98.7227 107.36 98.7227 107.668C98.7227 107.975 98.9717 108.224 99.279 108.224Z" fill="black"/>
<path d="M103.724 114.9C104.032 114.9 104.281 114.651 104.281 114.343C104.281 114.036 104.032 113.787 103.724 113.787C103.417 113.787 103.168 114.036 103.168 114.343C103.168 114.651 103.417 114.9 103.724 114.9Z" fill="black"/>
<g filter="url(#filter0_d_575_109)">
<path d="M35.4492 195.213V185.503H36.6251V189.828H41.8025V185.503H42.9782V195.213H41.8025V190.87H36.6251V195.213H35.4492ZM53.525 190.359C53.525 191.382 53.34 192.267 52.9703 193.014C52.6004 193.759 52.0931 194.335 51.4484 194.739C50.8035 195.144 50.067 195.346 49.2389 195.346C48.4109 195.346 47.6744 195.144 47.0295 194.739C46.3847 194.335 45.8774 193.759 45.5076 193.014C45.1379 192.267 44.9529 191.382 44.9529 190.359C44.9529 189.334 45.1379 188.449 45.5076 187.704C45.8774 186.957 46.3847 186.382 47.0295 185.977C47.6744 185.572 48.4109 185.371 49.2389 185.371C50.067 185.371 50.8035 185.572 51.4484 185.977C52.0931 186.382 52.6004 186.957 52.9703 187.704C53.34 188.449 53.525 189.334 53.525 190.359ZM52.3871 190.359C52.3871 189.517 52.2464 188.808 51.9651 188.23C51.687 187.651 51.3092 187.213 50.832 186.916C50.3579 186.619 49.8269 186.471 49.2389 186.471C48.651 186.471 48.1184 186.619 47.6412 186.916C47.1671 187.213 46.7894 187.651 46.508 188.23C46.2299 188.808 46.0908 189.517 46.0908 190.359C46.0908 191.199 46.2299 191.908 46.508 192.487C46.7894 193.066 47.1671 193.503 47.6412 193.8C48.1184 194.098 48.651 194.247 49.2389 194.247C49.8269 194.247 50.3579 194.098 50.832 193.8C51.3092 193.503 51.687 193.066 51.9651 192.487C52.2464 191.908 52.3871 191.199 52.3871 190.359ZM61.8741 185.503H63.05V191.932C63.05 192.597 62.8935 193.189 62.5806 193.71C62.2709 194.229 61.833 194.638 61.2672 194.938C60.7016 195.235 60.0378 195.384 59.276 195.384C58.5143 195.384 57.8505 195.235 57.2847 194.938C56.7189 194.638 56.2796 194.229 55.9667 193.71C55.6569 193.189 55.502 192.597 55.502 191.932V185.503H56.6778V191.838C56.6778 192.312 56.7821 192.733 56.9907 193.104C57.1994 193.47 57.4965 193.759 57.882 193.971C58.2708 194.179 58.7355 194.284 59.276 194.284C59.8164 194.284 60.2811 194.179 60.6699 193.971C61.0587 193.759 61.3559 193.47 61.5612 193.104C61.7699 192.733 61.8741 192.312 61.8741 191.838V185.503ZM70.7082 187.93C70.6512 187.45 70.4205 187.077 70.016 186.811C69.6114 186.546 69.1151 186.414 68.5272 186.414C68.0973 186.414 67.7213 186.483 67.3988 186.622C67.0796 186.762 66.8298 186.952 66.6497 187.195C66.4727 187.44 66.3842 187.716 66.3842 188.026C66.3842 188.284 66.4458 188.508 66.5691 188.694C66.6956 188.877 66.8567 189.031 67.0527 189.154C67.2486 189.274 67.4541 189.373 67.6691 189.453C67.884 189.529 68.0816 189.591 68.2617 189.637L69.2478 189.903C69.5007 189.97 69.7821 190.062 70.0919 190.179C70.4048 190.296 70.7034 190.455 70.9878 190.657C71.2755 190.857 71.5125 191.112 71.6991 191.425C71.8856 191.737 71.9787 192.123 71.9787 192.577C71.9787 193.102 71.8413 193.576 71.5664 193.999C71.2944 194.424 70.8962 194.76 70.3715 195.009C69.8501 195.259 69.2163 195.384 68.4704 195.384C67.775 195.384 67.1729 195.271 66.6639 195.048C66.1583 194.823 65.76 194.509 65.4692 194.109C65.1815 193.707 65.0187 193.24 64.9808 192.709H66.1946C66.2262 193.077 66.3494 193.38 66.5643 193.62C66.7824 193.857 67.0575 194.034 67.3893 194.151C67.7244 194.265 68.0847 194.322 68.4704 194.322C68.9192 194.322 69.3222 194.25 69.6794 194.104C70.0365 193.956 70.3194 193.75 70.5279 193.488C70.7366 193.222 70.841 192.912 70.841 192.558C70.841 192.235 70.7508 191.973 70.5707 191.772C70.3905 191.569 70.1534 191.404 69.8595 191.278C69.5655 191.152 69.2478 191.041 68.9066 190.947L67.7117 190.605C66.9531 190.387 66.3527 190.075 65.91 189.67C65.4675 189.267 65.2463 188.737 65.2463 188.083C65.2463 187.539 65.3933 187.065 65.6873 186.66C65.9844 186.252 66.3827 185.937 66.882 185.712C67.3845 185.484 67.9457 185.371 68.5652 185.371C69.191 185.371 69.7473 185.482 70.2341 185.707C70.7208 185.928 71.1065 186.232 71.3909 186.618C71.6786 187.003 71.8302 187.441 71.846 187.93H70.7082ZM73.9121 195.213V185.503H79.7721V186.546H75.0878V189.828H79.4687V190.87H75.0878V194.17H79.848V195.213H73.9121ZM93.8391 190.359C93.8391 191.382 93.6543 192.267 93.2844 193.014C92.9147 193.759 92.4074 194.335 91.7625 194.739C91.1177 195.144 90.3813 195.346 89.5532 195.346C88.725 195.346 87.9885 195.144 87.3438 194.739C86.699 194.335 86.1917 193.759 85.8218 193.014C85.452 192.267 85.2671 191.382 85.2671 190.359C85.2671 189.334 85.452 188.449 85.8218 187.704C86.1917 186.957 86.699 186.382 87.3438 185.977C87.9885 185.572 88.725 185.371 89.5532 185.371C90.3813 185.371 91.1177 185.572 91.7625 185.977C92.4074 186.382 92.9147 186.957 93.2844 187.704C93.6543 188.449 93.8391 189.334 93.8391 190.359ZM92.7012 190.359C92.7012 189.517 92.5607 188.808 92.2793 188.23C92.0012 187.651 91.6235 187.213 91.1462 186.916C90.672 186.619 90.141 186.471 89.5532 186.471C88.9652 186.471 88.4327 186.619 87.9554 186.916C87.4812 187.213 87.1035 187.651 86.8223 188.23C86.544 188.808 86.405 189.517 86.405 190.359C86.405 191.199 86.544 191.908 86.8223 192.487C87.1035 193.066 87.4812 193.503 87.9554 193.8C88.4327 194.098 88.9652 194.247 89.5532 194.247C90.141 194.247 90.672 194.098 91.1462 193.8C91.6235 193.503 92.0012 193.066 92.2793 192.487C92.5607 191.908 92.7012 191.199 92.7012 190.359ZM95.8163 195.213V185.503H101.638V186.546H96.9921V189.828H101.202V190.87H96.9921V195.213H95.8163ZM111.124 185.503H112.3V192.444C112.3 193.063 112.186 193.59 111.958 194.023C111.732 194.457 111.411 194.785 110.997 195.009C110.583 195.234 110.094 195.346 109.531 195.346C109 195.346 108.528 195.25 108.114 195.057C107.7 194.86 107.374 194.583 107.137 194.223C106.9 193.863 106.781 193.434 106.781 192.937H107.938C107.938 193.212 108.006 193.453 108.142 193.659C108.281 193.86 108.471 194.019 108.711 194.133C108.951 194.247 109.225 194.302 109.531 194.302C109.87 194.302 110.157 194.232 110.394 194.089C110.631 193.947 110.811 193.738 110.935 193.464C111.061 193.186 111.124 192.846 111.124 192.444V185.503ZM115.833 185.503V195.213H114.657V185.503H115.833ZM118.189 195.213V185.503H121.471C122.229 185.503 122.853 185.632 123.339 185.892C123.826 186.148 124.186 186.501 124.42 186.949C124.654 187.398 124.771 187.909 124.771 188.481C124.771 189.052 124.654 189.561 124.42 190.003C124.186 190.446 123.828 190.792 123.343 191.046C122.86 191.295 122.242 191.421 121.489 191.421H118.834V190.359H121.452C121.971 190.359 122.388 190.282 122.703 190.131C123.022 189.979 123.253 189.765 123.396 189.486C123.541 189.205 123.613 188.869 123.613 188.481C123.613 188.092 123.541 187.752 123.396 187.461C123.25 187.171 123.018 186.946 122.698 186.789C122.379 186.627 121.957 186.546 121.432 186.546H119.365V195.213H118.189ZM122.76 190.851L125.149 195.213H123.784L121.432 190.851H122.76ZM126.73 195.213V185.503H132.591V186.546H127.906V189.828H132.286V190.87H127.906V194.17H132.666V195.213H126.73ZM134.709 195.213V185.503H135.885V189.828H141.063V185.503H142.239V195.213H141.063V190.87H135.885V195.213H134.709Z" fill="black"/>
</g>
<path d="M67.1211 204.015V199.968H67.368V203.785H69.3435V204.015H67.1211ZM71.2933 204.078C71.0431 204.078 70.8205 204.01 70.6257 203.875C70.4307 203.74 70.2772 203.554 70.1653 203.317C70.0534 203.08 69.9975 202.81 69.9975 202.507C69.9975 202.203 70.0534 201.933 70.1653 201.697C70.2772 201.46 70.4307 201.273 70.6257 201.138C70.8205 201.003 71.0431 200.934 71.2933 200.934C71.5435 200.934 71.7661 201.003 71.9611 201.138C72.156 201.273 72.3094 201.46 72.4213 201.697C72.5332 201.934 72.5893 202.204 72.5893 202.507C72.5893 202.81 72.5332 203.08 72.4213 203.317C72.3094 203.554 72.156 203.74 71.9611 203.875C71.7661 204.01 71.5435 204.078 71.2933 204.078ZM71.2933 203.854C71.5054 203.854 71.6904 203.794 71.8485 203.674C72.0078 203.554 72.1309 203.392 72.2179 203.188C72.3061 202.984 72.3502 202.756 72.3502 202.507C72.3502 202.257 72.3061 202.03 72.2179 201.828C72.1296 201.624 72.0064 201.462 71.8485 201.342C71.6904 201.22 71.5054 201.159 71.2933 201.159C71.0814 201.159 70.8963 201.22 70.7382 201.342C70.5802 201.462 70.4571 201.624 70.3689 201.828C70.2805 202.03 70.2365 202.257 70.2365 202.507C70.2365 202.756 70.2799 202.984 70.3668 203.188C70.4551 203.392 70.5783 203.554 70.7362 203.674C70.8957 203.794 71.0814 203.854 71.2933 203.854ZM73.4194 204.015V200.98H73.6545V201.454H73.6762C73.7421 201.298 73.8534 201.174 74.0101 201.081C74.1669 200.986 74.3454 200.938 74.5455 200.938C74.5666 200.938 74.5876 200.938 74.6088 200.938C74.6298 200.938 74.6496 200.938 74.668 200.94V201.183C74.6521 201.181 74.6331 201.18 74.6107 201.177C74.5896 201.174 74.5633 201.171 74.5317 201.171C74.3631 201.171 74.2129 201.208 74.0812 201.28C73.9509 201.352 73.8481 201.453 73.7731 201.58C73.698 201.706 73.6605 201.852 73.6605 202.015V204.015H73.4194ZM76.2642 204.078C76.0206 204.078 75.8079 204.01 75.6261 203.875C75.4443 203.742 75.3034 203.556 75.2034 203.32C75.1045 203.083 75.0552 202.812 75.0552 202.504C75.0552 202.201 75.1053 201.931 75.2053 201.694C75.3067 201.457 75.4483 201.273 75.63 201.138C75.8118 201.003 76.0239 200.934 76.2661 200.934C76.44 200.934 76.5907 200.968 76.7185 201.036C76.8475 201.1 76.9555 201.189 77.0425 201.298C77.1307 201.408 77.1979 201.526 77.244 201.657H77.2677V199.968H77.5068V204.015H77.2737V203.352H77.244C77.1952 203.482 77.1274 203.604 77.0406 203.713C76.9536 203.823 76.8456 203.911 76.7166 203.979C76.5874 204.045 76.4367 204.078 76.2642 204.078ZM76.2859 203.854C76.4913 203.854 76.6672 203.796 76.8133 203.679C76.9609 203.56 77.0734 203.4 77.1511 203.196C77.2302 202.992 77.2696 202.761 77.2696 202.503C77.2696 202.245 77.2302 202.015 77.1511 201.813C77.0734 201.61 76.9609 201.451 76.8133 201.336C76.6672 201.219 76.4913 201.159 76.2859 201.159C76.0779 201.159 75.8994 201.219 75.7506 201.337C75.603 201.454 75.4898 201.615 75.4109 201.817C75.3332 202.02 75.2943 202.249 75.2943 202.503C75.2943 202.756 75.3332 202.986 75.4109 203.19C75.4898 203.394 75.603 203.556 75.7506 203.676C75.8994 203.794 76.0779 203.854 76.2859 203.854ZM83.4589 201.991C83.4589 202.408 83.3865 202.773 83.2416 203.086C83.0967 203.397 82.8952 203.638 82.6371 203.811C82.3803 203.983 82.084 204.069 81.7482 204.069C81.411 204.069 81.1134 203.983 80.8552 203.811C80.5984 203.637 80.3976 203.394 80.2527 203.083C80.1078 202.771 80.0353 202.407 80.0353 201.991C80.0353 201.574 80.1078 201.21 80.2527 200.899C80.3989 200.587 80.6004 200.346 80.8572 200.173C81.114 199.999 81.411 199.912 81.7482 199.912C82.084 199.912 82.3803 199.999 82.6371 200.172C82.8952 200.344 83.0967 200.587 83.2416 200.899C83.3865 201.21 83.4589 201.574 83.4589 201.991ZM83.2179 201.991C83.2179 201.616 83.1547 201.291 83.0283 201.015C82.9032 200.74 82.7299 200.527 82.5087 200.377C82.2874 200.226 82.0339 200.149 81.7482 200.149C81.4623 200.149 81.2088 200.226 80.9875 200.376C80.7663 200.524 80.5924 200.737 80.466 201.013C80.3409 201.289 80.2783 201.615 80.2783 201.991C80.2783 202.363 80.3403 202.689 80.464 202.965C80.5891 203.241 80.7624 203.454 80.9836 203.605C81.2049 203.757 81.4597 203.832 81.7482 203.832C82.0339 203.832 82.2874 203.757 82.5087 203.607C82.7299 203.455 82.9032 203.242 83.0283 202.968C83.1547 202.692 83.2179 202.366 83.2179 201.991ZM86.2828 202.938V200.98H86.5239V204.015H86.2828V203.523H86.2632C86.1919 203.679 86.0767 203.806 85.9174 203.905C85.7593 204.004 85.5723 204.054 85.3564 204.054C85.1575 204.054 84.9817 204.01 84.8289 203.923C84.6762 203.836 84.5563 203.713 84.4693 203.554C84.3825 203.394 84.339 203.202 84.339 202.981V200.98H84.58V202.971C84.58 203.224 84.6564 203.428 84.8091 203.586C84.9633 203.74 85.1622 203.818 85.4058 203.818C85.5637 203.818 85.7094 203.782 85.8423 203.712C85.9754 203.641 86.082 203.539 86.1624 203.407C86.2426 203.275 86.2828 203.118 86.2828 202.938ZM87.5224 204.015V200.98H87.7576V201.454H87.7792C87.8451 201.298 87.9564 201.174 88.1131 201.081C88.2699 200.986 88.4484 200.938 88.6485 200.938C88.6696 200.938 88.6906 200.938 88.7118 200.938C88.7328 200.938 88.7526 200.938 88.771 200.94V201.183C88.7551 201.181 88.7361 201.18 88.7137 201.177C88.6926 201.174 88.6663 201.171 88.6347 201.171C88.4661 201.171 88.3159 201.208 88.1842 201.28C88.0539 201.352 87.9511 201.453 87.8761 201.58C87.801 201.706 87.7635 201.852 87.7635 202.015V204.015H87.5224ZM91.068 204.015V199.968H92.3145C92.5713 199.968 92.7913 200.02 92.9743 200.127C93.1587 200.232 93.3003 200.376 93.3991 200.559C93.4978 200.742 93.5472 200.95 93.5472 201.186C93.5472 201.417 93.4978 201.624 93.3991 201.807C93.3003 201.99 93.1587 202.135 92.9743 202.242C92.7913 202.347 92.572 202.401 92.3166 202.401H91.2418V202.171H92.3106C92.5186 202.171 92.6965 202.129 92.844 202.044C92.9914 201.958 93.1047 201.843 93.1837 201.694C93.2628 201.546 93.3022 201.376 93.3022 201.186C93.3022 200.992 93.2628 200.823 93.1837 200.673C93.1047 200.524 92.9908 200.409 92.842 200.323C92.6944 200.239 92.5167 200.197 92.3086 200.197H91.3149V204.015H91.068ZM94.411 204.015V200.98H94.6461V201.454H94.6678C94.7337 201.298 94.845 201.174 95.0017 201.081C95.1585 200.986 95.3368 200.938 95.5371 200.938C95.5581 200.938 95.5792 200.938 95.6002 200.938C95.6214 200.938 95.6411 200.938 95.6595 200.94V201.183C95.6438 201.181 95.6247 201.18 95.6022 201.177C95.5812 201.174 95.5548 201.171 95.5233 201.171C95.3547 201.171 95.2045 201.208 95.0728 201.28C94.9425 201.352 94.8397 201.453 94.7646 201.58C94.6896 201.706 94.6521 201.852 94.6521 202.015V204.015H94.411ZM97.3426 204.078C97.0924 204.078 96.8698 204.01 96.675 203.875C96.48 203.74 96.3265 203.554 96.2146 203.317C96.1027 203.08 96.0468 202.81 96.0468 202.507C96.0468 202.203 96.1027 201.933 96.2146 201.697C96.3265 201.46 96.48 201.273 96.675 201.138C96.8698 201.003 97.0924 200.934 97.3426 200.934C97.5928 200.934 97.8154 201.003 98.0104 201.138C98.2053 201.273 98.3587 201.46 98.4706 201.697C98.5825 201.934 98.6386 202.204 98.6386 202.507C98.6386 202.81 98.5825 203.08 98.4706 203.317C98.3587 203.554 98.2053 203.74 98.0104 203.875C97.8154 204.01 97.5928 204.078 97.3426 204.078ZM97.3426 203.854C97.5547 203.854 97.7397 203.794 97.8978 203.674C98.0571 203.554 98.1802 203.392 98.2672 203.188C98.3554 202.984 98.3995 202.756 98.3995 202.507C98.3995 202.257 98.3554 202.03 98.2672 201.828C98.1789 201.624 98.0557 201.462 97.8978 201.342C97.7397 201.22 97.5547 201.159 97.3426 201.159C97.1307 201.159 96.9456 201.22 96.7875 201.342C96.6295 201.462 96.5064 201.624 96.4182 201.828C96.3298 202.03 96.2857 202.257 96.2857 202.507C96.2857 202.756 96.3292 202.984 96.4161 203.188C96.5044 203.392 96.6276 203.554 96.7855 203.674C96.945 203.794 97.1307 203.854 97.3426 203.854ZM101.579 200.98L100.482 204.015H100.21L99.1132 200.98H99.372L100.336 203.704H100.356L101.32 200.98H101.579ZM102.344 204.015V200.98H102.583V204.015H102.344ZM102.464 200.442C102.411 200.442 102.365 200.424 102.326 200.388C102.288 200.35 102.268 200.305 102.268 200.253C102.268 200.2 102.288 200.155 102.326 200.118C102.364 200.082 102.41 200.064 102.464 200.064C102.517 200.064 102.562 200.082 102.6 200.118C102.64 200.155 102.66 200.2 102.66 200.253C102.66 200.305 102.641 200.35 102.602 200.388C102.564 200.424 102.518 200.442 102.464 200.442ZM104.633 204.078C104.389 204.078 104.177 204.01 103.995 203.875C103.813 203.742 103.672 203.556 103.572 203.32C103.474 203.083 103.424 202.812 103.424 202.504C103.424 202.201 103.474 201.931 103.574 201.694C103.676 201.457 103.817 201.273 103.999 201.138C104.181 201.003 104.393 200.934 104.635 200.934C104.809 200.934 104.96 200.968 105.088 201.036C105.217 201.1 105.325 201.189 105.412 201.298C105.5 201.408 105.567 201.526 105.613 201.657H105.637V199.968H105.876V204.015H105.643V203.352H105.613C105.564 203.482 105.496 203.604 105.41 203.713C105.323 203.823 105.215 203.911 105.086 203.979C104.956 204.045 104.806 204.078 104.633 204.078ZM104.655 203.854C104.86 203.854 105.036 203.796 105.182 203.679C105.33 203.56 105.442 203.4 105.52 203.196C105.599 202.992 105.639 202.761 105.639 202.503C105.639 202.245 105.599 202.015 105.52 201.813C105.442 201.61 105.33 201.451 105.182 201.336C105.036 201.219 104.86 201.159 104.655 201.159C104.447 201.159 104.268 201.219 104.12 201.337C103.972 201.454 103.859 201.615 103.78 201.817C103.702 202.02 103.663 202.249 103.663 202.503C103.663 202.756 103.702 202.986 103.78 203.19C103.859 203.394 103.972 203.556 104.12 203.676C104.268 203.794 104.447 203.854 104.655 203.854ZM108.144 204.078C107.87 204.078 107.631 204.009 107.428 203.874C107.226 203.739 107.069 203.553 106.958 203.317C106.848 203.08 106.792 202.812 106.792 202.51C106.792 202.207 106.848 201.937 106.958 201.7C107.07 201.463 107.224 201.277 107.419 201.139C107.614 201.003 107.836 200.934 108.086 200.934C108.256 200.934 108.417 200.968 108.568 201.037C108.721 201.105 108.855 201.202 108.971 201.33C109.089 201.457 109.18 201.612 109.246 201.792C109.313 201.972 109.347 202.174 109.347 202.401V202.551H106.945V202.33H109.106C109.106 202.111 109.061 201.913 108.971 201.736C108.882 201.559 108.76 201.42 108.606 201.316C108.452 201.211 108.279 201.159 108.086 201.159C107.885 201.159 107.705 201.216 107.547 201.33C107.39 201.441 107.266 201.592 107.174 201.784C107.083 201.975 107.035 202.188 107.031 202.423V202.522C107.031 202.776 107.076 203.002 107.164 203.205C107.253 203.404 107.381 203.563 107.547 203.68C107.713 203.796 107.912 203.854 108.144 203.854C108.31 203.854 108.451 203.826 108.568 203.772C108.687 203.715 108.784 203.646 108.859 203.566C108.934 203.485 108.99 203.407 109.029 203.332L109.248 203.421C109.202 203.523 109.13 203.625 109.033 203.725C108.936 203.826 108.814 203.91 108.665 203.977C108.518 204.043 108.344 204.078 108.144 204.078ZM110.176 204.015V200.98H110.412V201.454H110.433C110.499 201.298 110.611 201.174 110.767 201.081C110.925 200.986 111.102 200.938 111.303 200.938C111.324 200.938 111.345 200.938 111.366 200.938C111.387 200.938 111.406 200.938 111.426 200.94V201.183C111.409 201.181 111.39 201.18 111.367 201.177C111.346 201.174 111.321 201.171 111.289 201.171C111.12 201.171 110.97 201.208 110.838 201.28C110.709 201.352 110.605 201.453 110.53 201.58C110.455 201.706 110.418 201.852 110.418 202.015V204.015H110.176Z" fill="black"/>
<path fill-rule="evenodd" clip-rule="evenodd" d="M118.739 198.771L118.887 198.66L118.89 198.665L118.898 198.674C118.94 198.731 118.98 198.788 119.021 198.846C119.123 198.992 119.22 199.139 119.313 199.289C119.42 199.46 119.528 199.649 119.612 199.829C119.691 200.001 119.759 200.189 119.759 200.348C119.759 200.913 119.304 201.368 118.739 201.368C118.605 201.368 118.472 201.342 118.347 201.291C118.224 201.24 118.112 201.165 118.016 201.071C117.921 200.975 117.846 200.862 117.795 200.739C117.744 200.615 117.719 200.483 117.719 200.348C117.719 200.189 117.786 200.001 117.866 199.829C117.948 199.649 118.058 199.46 118.164 199.289C118.295 199.079 118.434 198.873 118.58 198.674L118.587 198.665L118.59 198.662L118.739 198.771ZM118.479 199.484C118.562 199.35 118.649 199.22 118.739 199.089C118.829 199.22 118.916 199.35 118.998 199.484C119.1 199.649 119.201 199.824 119.274 199.983C119.351 200.151 119.388 200.276 119.388 200.348C119.388 200.709 119.1 200.997 118.739 200.997C118.653 200.997 118.569 200.981 118.49 200.949C118.41 200.916 118.34 200.868 118.278 200.808C118.218 200.748 118.17 200.676 118.139 200.597C118.106 200.517 118.089 200.433 118.089 200.348C118.089 200.276 118.127 200.151 118.203 199.983C118.277 199.824 118.377 199.649 118.479 199.484Z" fill="black"/>
<path d="M118.738 198.77L118.887 198.659L118.738 198.461L118.59 198.659L118.738 198.77Z" fill="black"/>
<path fill-rule="evenodd" clip-rule="evenodd" d="M116.569 199.962L116.42 199.76L116.27 199.959L116.269 199.962L116.263 199.968L116.245 199.994C116.152 200.121 116.065 200.252 115.982 200.385C115.907 200.505 115.84 200.63 115.78 200.759C115.726 200.88 115.676 201.018 115.676 201.144C115.676 201.567 115.993 201.924 116.419 201.924C116.845 201.924 117.16 201.567 117.16 201.144C117.16 201.023 117.11 200.886 117.056 200.769C116.996 200.64 116.929 200.516 116.855 200.394C116.767 200.25 116.674 200.109 116.575 199.971L116.57 199.964L116.569 199.962ZM116.417 200.396C116.38 200.45 116.339 200.513 116.299 200.579C116.231 200.685 116.171 200.796 116.119 200.91C116.068 201.023 116.048 201.101 116.048 201.144C116.048 201.387 116.221 201.554 116.419 201.554C116.615 201.554 116.789 201.387 116.789 201.144C116.789 201.108 116.77 201.035 116.719 200.922C116.671 200.816 116.606 200.699 116.539 200.586C116.498 200.522 116.458 200.459 116.417 200.396ZM114.565 204.66V204.705C114.565 204.804 114.526 204.899 114.455 204.968C114.386 205.038 114.292 205.077 114.193 205.077H113.636C113.539 205.077 113.444 205.038 113.375 204.968C113.305 204.899 113.266 204.804 113.266 204.705V202.667C113.266 202.569 113.305 202.475 113.375 202.404C113.444 202.335 113.539 202.296 113.636 202.296H114.193C114.277 202.296 114.358 202.325 114.424 202.376C114.488 202.428 114.535 202.5 114.554 202.581C114.8 202.493 115.087 202.388 115.174 202.347C115.249 202.314 115.334 202.302 115.406 202.298C115.48 202.295 115.555 202.296 115.628 202.302C115.711 202.308 115.793 202.319 115.874 202.332L115.879 202.334L115.883 202.335L117.124 202.613L117.133 202.616L117.143 202.619L117.178 202.629C117.208 202.637 117.253 202.649 117.305 202.661C117.412 202.683 117.545 202.704 117.671 202.704C117.787 202.704 117.907 202.748 117.97 202.865C118.025 202.965 118.012 203.076 117.992 203.153C117.967 203.249 117.913 203.348 117.845 203.433C117.937 203.399 118.036 203.358 118.142 203.315L118.166 203.306C118.466 203.181 118.823 203.036 119.138 202.983C119.498 202.923 119.759 203.054 119.878 203.286C119.984 203.492 119.96 203.763 119.801 203.925C119.761 203.967 119.699 204.009 119.639 204.05C119.573 204.092 119.494 204.14 119.404 204.191C119.2 204.305 118.991 204.414 118.781 204.521C118.342 204.744 117.881 204.96 117.734 205.014C117.565 205.076 117.382 205.082 117.208 205.073C117.101 205.067 116.996 205.058 116.89 205.046C116.813 205.038 116.735 205.031 116.659 205.025C116.3 204.998 116.026 204.911 115.774 204.83L115.744 204.821C115.483 204.738 115.24 204.665 114.917 204.651C114.844 204.648 114.697 204.654 114.565 204.66ZM115.328 202.685C115.34 202.679 115.372 202.671 115.427 202.668C115.481 202.665 115.541 202.667 115.6 202.671C115.67 202.677 115.739 202.686 115.81 202.698L117.028 202.971L117.035 202.974C117.046 202.977 117.061 202.98 117.079 202.986C117.115 202.995 117.166 203.009 117.226 203.022C117.334 203.046 117.479 203.07 117.628 203.075C117.614 203.111 117.596 203.145 117.575 203.175C117.545 203.219 117.512 203.252 117.487 203.271C117.409 203.327 117.347 203.349 117.308 203.36C117.296 203.363 117.283 203.366 117.269 203.367H117.266L116.272 203.355L116.236 203.723L116.246 203.724L116.275 203.729L116.377 203.748C116.464 203.763 116.582 203.783 116.713 203.804C116.966 203.846 117.274 203.892 117.448 203.903C117.569 203.91 117.709 203.873 117.839 203.829C117.976 203.784 118.129 203.721 118.283 203.657C118.603 203.526 118.927 203.394 119.198 203.349C119.434 203.31 119.518 203.396 119.548 203.454C119.591 203.54 119.569 203.633 119.536 203.667C119.527 203.675 119.498 203.699 119.437 203.738C119.38 203.774 119.308 203.819 119.221 203.867C119.021 203.979 118.819 204.087 118.615 204.189C118.171 204.414 117.73 204.621 117.607 204.666C117.508 204.702 117.385 204.711 117.226 204.702C117.133 204.698 117.038 204.689 116.945 204.678C116.86 204.669 116.773 204.662 116.686 204.654C116.372 204.632 116.134 204.555 115.879 204.474L115.855 204.467C115.591 204.383 115.307 204.296 114.932 204.281C114.848 204.278 114.698 204.282 114.565 204.288V202.971C114.824 202.878 115.211 202.739 115.328 202.685ZM114.193 202.667H113.636V204.705H114.193V202.667Z" fill="black"/>
<defs>
<filter id="filter0_d_575_109" x="30.9988" y="185.371" width="115.69" height="18.9125" filterUnits="userSpaceOnUse" color-interpolation-filters="sRGB">
<feFlood flood-opacity="0" result="BackgroundImageFix"/>
<feColorMatrix in="SourceAlpha" type="matrix" values="0 0 0 0 0 0 0 0 0 0 0 0 0 0 0 0 0 0 127 0" result="hardAlpha"/>
<feOffset dy="4.45038"/>
<feGaussianBlur stdDeviation="2.22519"/>
<feComposite in2="hardAlpha" operator="out"/>
<feColorMatrix type="matrix" values="0 0 0 0 0 0 0 0 0 0 0 0 0 0 0 0 0 0 0.25 0"/>
<feBlend mode="normal" in2="BackgroundImageFix" result="effect1_dropShadow_575_109"/>
<feBlend mode="normal" in="SourceGraphic" in2="effect1_dropShadow_575_109" result="shape"/>
</filter>
</defs>
</svg>
