<svg width="121" height="81" viewBox="0 0 121 81" fill="none" xmlns="http://www.w3.org/2000/svg">
<g filter="url(#filter0_di_544_30)">
<path d="M47.5625 55H46.4403V51.3636H47.6122C47.965 51.3636 48.2668 51.4364 48.5178 51.582C48.7687 51.7264 48.9611 51.9342 49.0948 52.2053C49.2286 52.4751 49.2955 52.7983 49.2955 53.1747C49.2955 53.5535 49.228 53.8796 49.093 54.1531C48.9581 54.4253 48.7616 54.6348 48.5036 54.7816C48.2455 54.9272 47.9318 55 47.5625 55ZM46.8807 54.6094H47.5341C47.8348 54.6094 48.0839 54.5514 48.2816 54.4354C48.4793 54.3194 48.6267 54.1542 48.7237 53.94C48.8208 53.7257 48.8693 53.4706 48.8693 53.1747C48.8693 52.8812 48.8214 52.6284 48.7255 52.4165C48.6296 52.2035 48.4864 52.0401 48.2958 51.9265C48.1052 51.8117 47.8679 51.7543 47.5838 51.7543H46.8807V54.6094ZM51.1207 55.0568C50.858 55.0568 50.6313 54.9988 50.4407 54.8828C50.2513 54.7656 50.1051 54.6023 50.0021 54.3928C49.9003 54.1821 49.8494 53.937 49.8494 53.6577C49.8494 53.3783 49.9003 53.1321 50.0021 52.919C50.1051 52.7048 50.2483 52.5379 50.4318 52.4183C50.6165 52.2976 50.8319 52.2372 51.0781 52.2372C51.2202 52.2372 51.3604 52.2609 51.4989 52.3082C51.6374 52.3556 51.7635 52.4325 51.8771 52.5391C51.9908 52.6444 52.0813 52.7841 52.1488 52.9581C52.2163 53.1321 52.25 53.3464 52.25 53.6009V53.7784H50.1477V53.4162H51.8239C51.8239 53.2623 51.7931 53.125 51.7315 53.0043C51.6712 52.8835 51.5848 52.7882 51.4723 52.7184C51.361 52.6486 51.2296 52.6136 51.0781 52.6136C50.9112 52.6136 50.7668 52.6551 50.6449 52.7379C50.5241 52.8196 50.4312 52.9261 50.3661 53.0575C50.301 53.1889 50.2685 53.3298 50.2685 53.4801V53.7216C50.2685 53.9276 50.304 54.1022 50.375 54.2454C50.4472 54.3874 50.5472 54.4957 50.6751 54.5703C50.8029 54.6437 50.9515 54.6804 51.1207 54.6804C51.2308 54.6804 51.3303 54.665 51.419 54.6342C51.509 54.6023 51.5865 54.5549 51.6516 54.4922C51.7167 54.4283 51.767 54.349 51.8026 54.2543L52.2074 54.3679C52.1648 54.5052 52.0932 54.6259 51.9925 54.7301C51.8919 54.8331 51.7676 54.9136 51.6197 54.9716C51.4717 55.0284 51.3054 55.0568 51.1207 55.0568ZM54.8192 52.8835L54.4428 52.9901C54.4192 52.9273 54.3842 52.8664 54.3381 52.8072C54.2931 52.7468 54.2315 52.6971 54.1534 52.658C54.0753 52.619 53.9753 52.5994 53.8533 52.5994C53.6864 52.5994 53.5473 52.6379 53.4361 52.7148C53.326 52.7906 53.271 52.8871 53.271 53.0043C53.271 53.1084 53.3088 53.1907 53.3846 53.2511C53.4603 53.3114 53.5787 53.3617 53.7397 53.402L54.1445 53.5014C54.3884 53.5606 54.5701 53.6512 54.6896 53.7731C54.8092 53.8938 54.869 54.0495 54.869 54.2401C54.869 54.3963 54.824 54.536 54.734 54.6591C54.6452 54.7822 54.521 54.8793 54.3612 54.9503C54.2013 55.0213 54.0155 55.0568 53.8036 55.0568C53.5254 55.0568 53.2952 54.9964 53.1129 54.8757C52.9306 54.755 52.8152 54.5786 52.7667 54.3466L53.1644 54.2472C53.2023 54.3939 53.2739 54.504 53.3793 54.5774C53.4858 54.6508 53.6249 54.6875 53.7965 54.6875C53.9918 54.6875 54.1469 54.6461 54.2617 54.5632C54.3777 54.4792 54.4357 54.3786 54.4357 54.2614C54.4357 54.1667 54.4026 54.0874 54.3363 54.0234C54.27 53.9583 54.1682 53.9098 54.0309 53.8778L53.5763 53.7713C53.3266 53.7121 53.1431 53.6204 53.0259 53.4961C52.9099 53.3706 52.8519 53.2138 52.8519 53.0256C52.8519 52.8717 52.8951 52.7356 52.9815 52.6172C53.0691 52.4988 53.1881 52.4059 53.3384 52.3384C53.4899 52.271 53.6616 52.2372 53.8533 52.2372C54.1232 52.2372 54.3351 52.2964 54.489 52.4148C54.6441 52.5331 54.7541 52.6894 54.8192 52.8835ZM55.4997 55V52.2727H55.9188V55H55.4997ZM55.7128 51.8182C55.6311 51.8182 55.5607 51.7904 55.5015 51.7347C55.4435 51.6791 55.4145 51.6122 55.4145 51.5341C55.4145 51.456 55.4435 51.3891 55.5015 51.3335C55.5607 51.2778 55.6311 51.25 55.7128 51.25C55.7945 51.25 55.8643 51.2778 55.9223 51.3335C55.9815 51.3891 56.0111 51.456 56.0111 51.5341C56.0111 51.6122 55.9815 51.6791 55.9223 51.7347C55.8643 51.7904 55.7945 51.8182 55.7128 51.8182ZM57.7871 56.0795C57.5847 56.0795 57.4107 56.0535 57.2651 56.0014C57.1195 55.9505 56.9982 55.883 56.9011 55.799C56.8052 55.7161 56.7289 55.6274 56.6721 55.5327L57.0059 55.2983C57.0437 55.348 57.0917 55.4048 57.1497 55.4688C57.2077 55.5339 57.287 55.5901 57.3876 55.6374C57.4894 55.686 57.6226 55.7102 57.7871 55.7102C58.0073 55.7102 58.189 55.657 58.3322 55.5504C58.4754 55.4439 58.5471 55.277 58.5471 55.0497V54.4957H58.5115C58.4808 54.5455 58.437 54.607 58.3801 54.6804C58.3245 54.7526 58.244 54.8171 58.1387 54.8739C58.0345 54.9296 57.8936 54.9574 57.7161 54.9574C57.4959 54.9574 57.2982 54.9053 57.123 54.8011C56.949 54.697 56.8111 54.5455 56.7093 54.3466C56.6087 54.1477 56.5584 53.9062 56.5584 53.6222C56.5584 53.3428 56.6075 53.0996 56.7058 52.8924C56.804 52.6841 56.9408 52.5231 57.1159 52.4094C57.2911 52.2946 57.4935 52.2372 57.7232 52.2372C57.9007 52.2372 58.0416 52.2668 58.1458 52.326C58.2511 52.384 58.3316 52.4503 58.3873 52.5249C58.4441 52.5982 58.4879 52.6586 58.5186 52.706H58.5613V52.2727H58.9661V55.0781C58.9661 55.3125 58.9128 55.5031 58.8063 55.6499C58.7009 55.7978 58.5589 55.9061 58.3801 55.9748C58.2026 56.0446 58.0049 56.0795 57.7871 56.0795ZM57.7729 54.581C57.941 54.581 58.083 54.5425 58.199 54.4656C58.315 54.3886 58.4032 54.2779 58.4636 54.1335C58.524 53.9891 58.5542 53.8163 58.5542 53.6151C58.5542 53.4186 58.5246 53.2451 58.4654 53.0948C58.4062 52.9445 58.3186 52.8267 58.2026 52.7415C58.0866 52.6562 57.9434 52.6136 57.7729 52.6136C57.5953 52.6136 57.4474 52.6586 57.329 52.7486C57.2118 52.8385 57.1236 52.9593 57.0645 53.1108C57.0065 53.2623 56.9775 53.4304 56.9775 53.6151C56.9775 53.8045 57.007 53.9719 57.0662 54.1175C57.1266 54.262 57.2154 54.3756 57.3326 54.4585C57.4509 54.5401 57.5977 54.581 57.7729 54.581ZM60.1522 53.3594V55H59.7331V52.2727H60.138V52.6989H60.1735C60.2374 52.5604 60.3345 52.4491 60.4647 52.3651C60.5949 52.2798 60.763 52.2372 60.9689 52.2372C61.1536 52.2372 61.3152 52.2751 61.4537 52.3509C61.5922 52.4254 61.6999 52.5391 61.7768 52.6918C61.8538 52.8433 61.8922 53.035 61.8922 53.267V55H61.4732V53.2955C61.4732 53.0812 61.4176 52.9143 61.3063 52.7947C61.195 52.674 61.0423 52.6136 60.8482 52.6136C60.7144 52.6136 60.5949 52.6426 60.4895 52.7006C60.3854 52.7586 60.3031 52.8433 60.2427 52.9545C60.1824 53.0658 60.1522 53.2008 60.1522 53.3594ZM64.5898 52.8835L64.2133 52.9901C64.1897 52.9273 64.1547 52.8664 64.1086 52.8072C64.0636 52.7468 64.002 52.6971 63.9239 52.658C63.8458 52.619 63.7458 52.5994 63.6238 52.5994C63.4569 52.5994 63.3179 52.6379 63.2066 52.7148C63.0965 52.7906 63.0415 52.8871 63.0415 53.0043C63.0415 53.1084 63.0793 53.1907 63.1551 53.2511C63.2309 53.3114 63.3492 53.3617 63.5102 53.402L63.915 53.5014C64.1589 53.5606 64.3406 53.6512 64.4601 53.7731C64.5797 53.8938 64.6395 54.0495 64.6395 54.2401C64.6395 54.3963 64.5945 54.536 64.5045 54.6591C64.4157 54.7822 64.2915 54.8793 64.1317 54.9503C63.9719 55.0213 63.786 55.0568 63.5741 55.0568C63.296 55.0568 63.0657 54.9964 62.8834 54.8757C62.7011 54.755 62.5857 54.5786 62.5372 54.3466L62.9349 54.2472C62.9728 54.3939 63.0444 54.504 63.1498 54.5774C63.2563 54.6508 63.3954 54.6875 63.567 54.6875C63.7623 54.6875 63.9174 54.6461 64.0322 54.5632C64.1482 54.4792 64.2062 54.3786 64.2062 54.2614C64.2062 54.1667 64.1731 54.0874 64.1068 54.0234C64.0405 53.9583 63.9387 53.9098 63.8014 53.8778L63.3469 53.7713C63.0971 53.7121 62.9136 53.6204 62.7964 53.4961C62.6804 53.3706 62.6224 53.2138 62.6224 53.0256C62.6224 52.8717 62.6656 52.7356 62.752 52.6172C62.8396 52.4988 62.9586 52.4059 63.1089 52.3384C63.2604 52.271 63.4321 52.2372 63.6238 52.2372C63.8937 52.2372 64.1056 52.2964 64.2595 52.4148C64.4146 52.5331 64.5247 52.6894 64.5898 52.8835Z" fill="#8B8080"/>
</g>
<path d="M25.008 47V45.92C25.32 45.92 25.752 45.884 26.304 45.812C26.856 45.74 27.372 45.584 27.852 45.344V21.656C27.54 21.536 27.168 21.476 26.736 21.476C26.328 21.452 25.956 21.464 25.62 21.512L25.296 20.576L30.048 18.596L30.768 19.1V33.176C31.32 32.768 31.932 32.348 32.604 31.916C33.3 31.46 34.02 31.076 34.764 30.764C35.508 30.452 36.228 30.296 36.924 30.296C37.356 30.296 37.848 30.368 38.4 30.512C38.976 30.656 39.54 30.98 40.092 31.484C40.524 31.868 40.872 32.396 41.136 33.068C41.424 33.74 41.568 34.616 41.568 35.696V45.344C42.048 45.584 42.564 45.74 43.116 45.812C43.668 45.884 44.1 45.92 44.412 45.92V47H35.808V45.92C36.12 45.92 36.552 45.884 37.104 45.812C37.656 45.74 38.172 45.584 38.652 45.344V36.596C38.652 35.996 38.628 35.48 38.58 35.048C38.532 34.616 38.388 34.208 38.148 33.824C37.884 33.392 37.524 33.068 37.068 32.852C36.636 32.636 36.144 32.528 35.592 32.528C34.584 32.528 33.66 32.792 32.82 33.32C32.004 33.824 31.32 34.292 30.768 34.724V45.344C31.248 45.584 31.764 45.74 32.316 45.812C32.868 45.884 33.3 45.92 33.612 45.92V47H25.008ZM45.8557 47V45.92C46.1677 45.92 46.5997 45.884 47.1517 45.812C47.7037 45.74 48.2197 45.584 48.6997 45.344V33.14C48.3877 33.02 48.0157 32.96 47.5837 32.96C47.1757 32.936 46.8037 32.948 46.4677 32.996L46.1437 32.06L50.8957 30.08L51.6157 30.584V45.344C52.0957 45.584 52.6117 45.74 53.1637 45.812C53.7157 45.884 54.1477 45.92 54.4597 45.92V47H45.8557ZM50.1037 26.66C49.5277 26.66 49.0477 26.48 48.6637 26.12C48.3037 25.736 48.1237 25.256 48.1237 24.68C48.1237 24.152 48.3037 23.684 48.6637 23.276C49.0477 22.868 49.5277 22.664 50.1037 22.664C50.6797 22.664 51.1597 22.856 51.5437 23.24C51.9277 23.624 52.1197 24.092 52.1197 24.644C52.1197 25.172 51.9277 25.64 51.5437 26.048C51.1597 26.456 50.6797 26.66 50.1037 26.66ZM55.8383 47V45.92C56.1503 45.92 56.5823 45.884 57.1343 45.812C57.6863 45.74 58.2023 45.584 58.6823 45.344V33.14C58.3703 33.02 57.9983 32.96 57.5663 32.96C57.1583 32.936 56.7863 32.948 56.4503 32.996L56.1263 32.06L60.8783 30.08L61.5983 30.584V32.996C62.1263 32.588 62.7143 32.18 63.3623 31.772C64.0343 31.364 64.7183 31.016 65.4143 30.728C66.1343 30.44 66.8303 30.296 67.5023 30.296C67.9343 30.296 68.4263 30.368 68.9783 30.512C69.5543 30.656 70.1183 30.98 70.6703 31.484C71.1023 31.868 71.4503 32.396 71.7143 33.068C72.0023 33.74 72.1463 34.616 72.1463 35.696V45.344C72.6263 45.584 73.1423 45.74 73.6943 45.812C74.2463 45.884 74.6783 45.92 74.9903 45.92V47H66.6743V45.92C66.9383 45.92 67.3223 45.884 67.8263 45.812C68.3303 45.74 68.7983 45.584 69.2303 45.344V36.596C69.2303 35.996 69.2063 35.48 69.1583 35.048C69.1103 34.616 68.9663 34.208 68.7263 33.824C68.4623 33.392 68.1023 33.068 67.6463 32.852C67.2143 32.636 66.7223 32.528 66.1703 32.528C65.2343 32.528 64.3703 32.756 63.5783 33.212C62.8103 33.668 62.1503 34.112 61.5983 34.544V45.344C62.0783 45.584 62.5943 45.74 63.1463 45.812C63.6983 45.884 64.1303 45.92 64.4423 45.92V47H55.8383ZM83.6332 42.824C82.7932 42.824 82.0012 42.656 81.2572 42.32C80.9692 42.56 80.7412 42.812 80.5732 43.076C80.4052 43.316 80.3212 43.58 80.3212 43.868C80.3212 44.3 80.5972 44.624 81.1492 44.84C81.7012 45.032 82.4452 45.176 83.3812 45.272C84.3172 45.368 85.3732 45.5 86.5492 45.668C87.5812 45.812 88.5652 46.04 89.5012 46.352C90.4372 46.64 91.1932 47.096 91.7692 47.72C92.3692 48.368 92.6692 49.256 92.6692 50.384C92.6692 51.704 92.2612 52.88 91.4452 53.912C90.6532 54.944 89.6092 55.748 88.3132 56.324C87.0412 56.924 85.6732 57.224 84.2092 57.224C82.9372 57.224 81.7372 57.056 80.6092 56.72C79.4812 56.384 78.5572 55.856 77.8372 55.136C77.1412 54.44 76.7932 53.54 76.7932 52.436C76.7932 51.692 76.9852 51.02 77.3692 50.42C77.7772 49.82 78.2812 49.28 78.8812 48.8C79.4812 48.32 80.0932 47.876 80.7172 47.468C79.8532 47.252 79.1332 46.928 78.5572 46.496C77.9812 46.064 77.6932 45.512 77.6932 44.84C77.6932 44.24 77.9572 43.688 78.4852 43.184C79.0372 42.656 79.6252 42.188 80.2492 41.78C79.4332 41.228 78.7732 40.496 78.2692 39.584C77.7652 38.672 77.5132 37.688 77.5132 36.632C77.5132 35.48 77.7772 34.424 78.3052 33.464C78.8332 32.504 79.5532 31.736 80.4652 31.16C81.3772 30.584 82.4092 30.296 83.5612 30.296C84.5452 30.296 85.4452 30.512 86.2612 30.944C87.1012 31.352 87.7972 31.892 88.3492 32.564L92.9212 32.06L92.6332 34.364L89.3572 34.328C89.6212 35.024 89.7532 35.744 89.7532 36.488C89.7532 37.664 89.4652 38.732 88.8892 39.692C88.3372 40.652 87.5932 41.42 86.6572 41.996C85.7452 42.548 84.7372 42.824 83.6332 42.824ZM86.9452 37.064C86.9452 36.224 86.7772 35.42 86.4412 34.652C86.1052 33.884 85.6612 33.26 85.1092 32.78C84.5812 32.276 83.9812 32.024 83.3092 32.024C82.3492 32.024 81.6052 32.456 81.0772 33.32C80.5732 34.16 80.3212 35.12 80.3212 36.2C80.3212 37.04 80.4892 37.844 80.8252 38.612C81.1612 39.356 81.6052 39.968 82.1572 40.448C82.7332 40.928 83.3452 41.168 83.9932 41.168C84.6172 41.168 85.1452 40.976 85.5772 40.592C86.0332 40.184 86.3692 39.668 86.5852 39.044C86.8252 38.396 86.9452 37.736 86.9452 37.064ZM79.6372 51.968C79.6372 52.76 79.8892 53.432 80.3932 53.984C80.8972 54.56 81.5332 54.992 82.3012 55.28C83.0692 55.568 83.8372 55.712 84.6052 55.712C86.0932 55.712 87.3412 55.304 88.3492 54.488C89.3812 53.696 89.8972 52.64 89.8972 51.32C89.8972 50.6 89.7052 50.036 89.3212 49.628C88.9612 49.244 88.4812 48.956 87.8812 48.764C87.3052 48.572 86.6932 48.428 86.0452 48.332C85.4452 48.236 84.8212 48.14 84.1732 48.044C83.5492 47.972 82.8532 47.876 82.0852 47.756C81.1732 48.452 80.5372 49.148 80.1772 49.844C79.8172 50.564 79.6372 51.272 79.6372 51.968Z" fill="#230909"/>
<path d="M17.8909 49.0217C17.211 49.2964 16.484 49.4103 15.7101 49.3635C14.9362 49.3167 14.2732 49.0992 13.7209 48.7112C13.268 48.3909 12.8485 47.9312 12.4627 47.3321C12.1078 46.7205 11.6993 45.843 11.2373 44.6994L6.03023 31.8116L3.5732 32.8043L2.99255 31.3672C3.46083 30.7465 3.90086 30.0115 4.31264 29.1621C4.72442 28.3126 5.08656 27.4293 5.39907 26.5121C5.71157 25.595 5.97803 24.7863 6.19844 24.086L7.29419 24.1287L8.73643 27.6983L15.1804 25.0948L16.2293 27.6909L9.78533 30.2944L14.8987 42.9505C15.2858 43.9086 15.6256 44.6161 15.9181 45.0732C16.229 45.4868 16.657 45.7453 17.2021 45.8487C17.7038 45.9336 18.2729 45.8295 18.9094 45.5363C19.5769 45.2307 20.1884 44.8758 20.7441 44.4715C21.3182 44.0238 21.7132 43.6666 21.9289 43.3996L23.0462 44.2964C22.5232 45.2267 21.8609 46.1234 21.0592 46.9866C20.276 47.8064 19.2199 48.4847 17.8909 49.0217Z" fill="#C52A2A"/>
<path d="M115.6 47.2C115.033 47.2 114.433 47.1333 113.8 47C113.167 46.8833 112.692 46.7333 112.375 46.55L111.85 43.3L112.675 43.15C112.825 43.9667 113.125 44.6667 113.575 45.25C114.042 45.8167 114.658 46.1 115.425 46.1C116.008 46.1 116.5 45.9583 116.9 45.675C117.3 45.3917 117.5 44.975 117.5 44.425C117.5 44.025 117.333 43.6667 117 43.35C116.667 43.0167 116.258 42.7 115.775 42.4C115.292 42.0833 114.8 41.75 114.3 41.4C113.817 41.05 113.408 40.6583 113.075 40.225C112.742 39.775 112.575 39.2417 112.575 38.625C112.575 37.6083 112.942 36.8167 113.675 36.25C114.425 35.6833 115.35 35.4 116.45 35.4C117 35.4 117.492 35.45 117.925 35.55C118.358 35.6333 118.65 35.6917 118.8 35.725L119.175 38.575L118.425 38.7C118.342 38.0167 118.108 37.4833 117.725 37.1C117.358 36.7167 116.892 36.525 116.325 36.525C115.775 36.525 115.317 36.6667 114.95 36.95C114.583 37.2167 114.4 37.6167 114.4 38.15C114.4 38.6333 114.567 39.0417 114.9 39.375C115.25 39.7083 115.675 40.0167 116.175 40.3C116.675 40.5833 117.167 40.8833 117.65 41.2C118.15 41.5167 118.567 41.9083 118.9 42.375C119.25 42.8417 119.425 43.425 119.425 44.125C119.425 45.0417 119.067 45.7833 118.35 46.35C117.65 46.9167 116.733 47.2 115.6 47.2Z" fill="#C52A2A"/>
<circle cx="102.5" cy="41.5" r="2.5" fill="#E7E7E7"/>
<circle cx="49.5" cy="24.5" r="3.5" fill="#1815A9"/>
<defs>
<filter id="filter0_di_544_30" x="26.4403" y="35.25" width="58.1991" height="44.8295" filterUnits="userSpaceOnUse" color-interpolation-filters="sRGB">
<feFlood flood-opacity="0" result="BackgroundImageFix"/>
<feColorMatrix in="SourceAlpha" type="matrix" values="0 0 0 0 0 0 0 0 0 0 0 0 0 0 0 0 0 0 127 0" result="hardAlpha"/>
<feOffset dy="4"/>
<feGaussianBlur stdDeviation="10"/>
<feComposite in2="hardAlpha" operator="out"/>
<feColorMatrix type="matrix" values="0 0 0 0 0.622038 0 0 0 0 0.285819 0 0 0 0 0.285819 0 0 0 0.25 0"/>
<feBlend mode="normal" in2="BackgroundImageFix" result="effect1_dropShadow_544_30"/>
<feBlend mode="normal" in="SourceGraphic" in2="effect1_dropShadow_544_30" result="shape"/>
<feColorMatrix in="SourceAlpha" type="matrix" values="0 0 0 0 0 0 0 0 0 0 0 0 0 0 0 0 0 0 127 0" result="hardAlpha"/>
<feOffset dx="5" dy="4"/>
<feGaussianBlur stdDeviation="11.5"/>
<feComposite in2="hardAlpha" operator="arithmetic" k2="-1" k3="1"/>
<feColorMatrix type="matrix" values="0 0 0 0 0.300098 0 0 0 0 0.295194 0 0 0 0 0.295194 0 0 0 0.25 0"/>
<feBlend mode="normal" in2="shape" result="effect2_innerShadow_544_30"/>
</filter>
</defs>
</svg>
