<svg width="124" height="81" viewBox="0 0 124 81" fill="none" xmlns="http://www.w3.org/2000/svg">
<g filter="url(#filter0_di_545_3)">
<path d="M50.5625 55H49.4403V51.3636H50.6122C50.965 51.3636 51.2668 51.4364 51.5178 51.582C51.7687 51.7264 51.9611 51.9342 52.0948 52.2053C52.2286 52.4751 52.2955 52.7983 52.2955 53.1747C52.2955 53.5535 52.228 53.8796 52.093 54.1531C51.9581 54.4253 51.7616 54.6348 51.5036 54.7816C51.2455 54.9272 50.9318 55 50.5625 55ZM49.8807 54.6094H50.5341C50.8348 54.6094 51.0839 54.5514 51.2816 54.4354C51.4793 54.3194 51.6267 54.1542 51.7237 53.94C51.8208 53.7257 51.8693 53.4706 51.8693 53.1747C51.8693 52.8812 51.8214 52.6284 51.7255 52.4165C51.6296 52.2035 51.4864 52.0401 51.2958 51.9265C51.1052 51.8117 50.8679 51.7543 50.5838 51.7543H49.8807V54.6094ZM54.1207 55.0568C53.858 55.0568 53.6313 54.9988 53.4407 54.8828C53.2513 54.7656 53.1051 54.6023 53.0021 54.3928C52.9003 54.1821 52.8494 53.937 52.8494 53.6577C52.8494 53.3783 52.9003 53.1321 53.0021 52.919C53.1051 52.7048 53.2483 52.5379 53.4318 52.4183C53.6165 52.2976 53.8319 52.2372 54.0781 52.2372C54.2202 52.2372 54.3604 52.2609 54.4989 52.3082C54.6374 52.3556 54.7635 52.4325 54.8771 52.5391C54.9908 52.6444 55.0813 52.7841 55.1488 52.9581C55.2163 53.1321 55.25 53.3464 55.25 53.6009V53.7784H53.1477V53.4162H54.8239C54.8239 53.2623 54.7931 53.125 54.7315 53.0043C54.6712 52.8835 54.5848 52.7882 54.4723 52.7184C54.361 52.6486 54.2296 52.6136 54.0781 52.6136C53.9112 52.6136 53.7668 52.6551 53.6449 52.7379C53.5241 52.8196 53.4312 52.9261 53.3661 53.0575C53.301 53.1889 53.2685 53.3298 53.2685 53.4801V53.7216C53.2685 53.9276 53.304 54.1022 53.375 54.2454C53.4472 54.3874 53.5472 54.4957 53.6751 54.5703C53.8029 54.6437 53.9515 54.6804 54.1207 54.6804C54.2308 54.6804 54.3303 54.665 54.419 54.6342C54.509 54.6023 54.5865 54.5549 54.6516 54.4922C54.7167 54.4283 54.767 54.349 54.8026 54.2543L55.2074 54.3679C55.1648 54.5052 55.0932 54.6259 54.9925 54.7301C54.8919 54.8331 54.7676 54.9136 54.6197 54.9716C54.4717 55.0284 54.3054 55.0568 54.1207 55.0568ZM57.8192 52.8835L57.4428 52.9901C57.4192 52.9273 57.3842 52.8664 57.3381 52.8072C57.2931 52.7468 57.2315 52.6971 57.1534 52.658C57.0753 52.619 56.9753 52.5994 56.8533 52.5994C56.6864 52.5994 56.5473 52.6379 56.4361 52.7148C56.326 52.7906 56.271 52.8871 56.271 53.0043C56.271 53.1084 56.3088 53.1907 56.3846 53.2511C56.4603 53.3114 56.5787 53.3617 56.7397 53.402L57.1445 53.5014C57.3884 53.5606 57.5701 53.6512 57.6896 53.7731C57.8092 53.8938 57.869 54.0495 57.869 54.2401C57.869 54.3963 57.824 54.536 57.734 54.6591C57.6452 54.7822 57.521 54.8793 57.3612 54.9503C57.2013 55.0213 57.0155 55.0568 56.8036 55.0568C56.5254 55.0568 56.2952 54.9964 56.1129 54.8757C55.9306 54.755 55.8152 54.5786 55.7667 54.3466L56.1644 54.2472C56.2023 54.3939 56.2739 54.504 56.3793 54.5774C56.4858 54.6508 56.6249 54.6875 56.7965 54.6875C56.9918 54.6875 57.1469 54.6461 57.2617 54.5632C57.3777 54.4792 57.4357 54.3786 57.4357 54.2614C57.4357 54.1667 57.4026 54.0874 57.3363 54.0234C57.27 53.9583 57.1682 53.9098 57.0309 53.8778L56.5763 53.7713C56.3266 53.7121 56.1431 53.6204 56.0259 53.4961C55.9099 53.3706 55.8519 53.2138 55.8519 53.0256C55.8519 52.8717 55.8951 52.7356 55.9815 52.6172C56.0691 52.4988 56.1881 52.4059 56.3384 52.3384C56.4899 52.271 56.6616 52.2372 56.8533 52.2372C57.1232 52.2372 57.3351 52.2964 57.489 52.4148C57.6441 52.5331 57.7541 52.6894 57.8192 52.8835ZM58.4997 55V52.2727H58.9188V55H58.4997ZM58.7128 51.8182C58.6311 51.8182 58.5607 51.7904 58.5015 51.7347C58.4435 51.6791 58.4145 51.6122 58.4145 51.5341C58.4145 51.456 58.4435 51.3891 58.5015 51.3335C58.5607 51.2778 58.6311 51.25 58.7128 51.25C58.7945 51.25 58.8643 51.2778 58.9223 51.3335C58.9815 51.3891 59.0111 51.456 59.0111 51.5341C59.0111 51.6122 58.9815 51.6791 58.9223 51.7347C58.8643 51.7904 58.7945 51.8182 58.7128 51.8182ZM60.7871 56.0795C60.5847 56.0795 60.4107 56.0535 60.2651 56.0014C60.1195 55.9505 59.9982 55.883 59.9011 55.799C59.8052 55.7161 59.7289 55.6274 59.6721 55.5327L60.0059 55.2983C60.0437 55.348 60.0917 55.4048 60.1497 55.4688C60.2077 55.5339 60.287 55.5901 60.3876 55.6374C60.4894 55.686 60.6226 55.7102 60.7871 55.7102C61.0073 55.7102 61.189 55.657 61.3322 55.5504C61.4754 55.4439 61.5471 55.277 61.5471 55.0497V54.4957H61.5115C61.4808 54.5455 61.437 54.607 61.3801 54.6804C61.3245 54.7526 61.244 54.8171 61.1387 54.8739C61.0345 54.9296 60.8936 54.9574 60.7161 54.9574C60.4959 54.9574 60.2982 54.9053 60.123 54.8011C59.949 54.697 59.8111 54.5455 59.7093 54.3466C59.6087 54.1477 59.5584 53.9062 59.5584 53.6222C59.5584 53.3428 59.6075 53.0996 59.7058 52.8924C59.804 52.6841 59.9408 52.5231 60.1159 52.4094C60.2911 52.2946 60.4935 52.2372 60.7232 52.2372C60.9007 52.2372 61.0416 52.2668 61.1458 52.326C61.2511 52.384 61.3316 52.4503 61.3873 52.5249C61.4441 52.5982 61.4879 52.6586 61.5186 52.706H61.5613V52.2727H61.9661V55.0781C61.9661 55.3125 61.9128 55.5031 61.8063 55.6499C61.7009 55.7978 61.5589 55.9061 61.3801 55.9748C61.2026 56.0446 61.0049 56.0795 60.7871 56.0795ZM60.7729 54.581C60.941 54.581 61.083 54.5425 61.199 54.4656C61.315 54.3886 61.4032 54.2779 61.4636 54.1335C61.524 53.9891 61.5542 53.8163 61.5542 53.6151C61.5542 53.4186 61.5246 53.2451 61.4654 53.0948C61.4062 52.9445 61.3186 52.8267 61.2026 52.7415C61.0866 52.6562 60.9434 52.6136 60.7729 52.6136C60.5953 52.6136 60.4474 52.6586 60.329 52.7486C60.2118 52.8385 60.1236 52.9593 60.0645 53.1108C60.0065 53.2623 59.9775 53.4304 59.9775 53.6151C59.9775 53.8045 60.007 53.9719 60.0662 54.1175C60.1266 54.262 60.2154 54.3756 60.3326 54.4585C60.4509 54.5401 60.5977 54.581 60.7729 54.581ZM63.1522 53.3594V55H62.7331V52.2727H63.138V52.6989H63.1735C63.2374 52.5604 63.3345 52.4491 63.4647 52.3651C63.5949 52.2798 63.763 52.2372 63.9689 52.2372C64.1536 52.2372 64.3152 52.2751 64.4537 52.3509C64.5922 52.4254 64.6999 52.5391 64.7768 52.6918C64.8538 52.8433 64.8922 53.035 64.8922 53.267V55H64.4732V53.2955C64.4732 53.0812 64.4176 52.9143 64.3063 52.7947C64.195 52.674 64.0423 52.6136 63.8482 52.6136C63.7144 52.6136 63.5949 52.6426 63.4895 52.7006C63.3854 52.7586 63.3031 52.8433 63.2427 52.9545C63.1824 53.0658 63.1522 53.2008 63.1522 53.3594ZM67.5898 52.8835L67.2133 52.9901C67.1897 52.9273 67.1547 52.8664 67.1086 52.8072C67.0636 52.7468 67.002 52.6971 66.9239 52.658C66.8458 52.619 66.7458 52.5994 66.6238 52.5994C66.4569 52.5994 66.3179 52.6379 66.2066 52.7148C66.0965 52.7906 66.0415 52.8871 66.0415 53.0043C66.0415 53.1084 66.0793 53.1907 66.1551 53.2511C66.2309 53.3114 66.3492 53.3617 66.5102 53.402L66.915 53.5014C67.1589 53.5606 67.3406 53.6512 67.4601 53.7731C67.5797 53.8938 67.6395 54.0495 67.6395 54.2401C67.6395 54.3963 67.5945 54.536 67.5045 54.6591C67.4157 54.7822 67.2915 54.8793 67.1317 54.9503C66.9719 55.0213 66.786 55.0568 66.5741 55.0568C66.296 55.0568 66.0657 54.9964 65.8834 54.8757C65.7011 54.755 65.5857 54.5786 65.5372 54.3466L65.9349 54.2472C65.9728 54.3939 66.0444 54.504 66.1498 54.5774C66.2563 54.6508 66.3954 54.6875 66.567 54.6875C66.7623 54.6875 66.9174 54.6461 67.0322 54.5632C67.1482 54.4792 67.2062 54.3786 67.2062 54.2614C67.2062 54.1667 67.1731 54.0874 67.1068 54.0234C67.0405 53.9583 66.9387 53.9098 66.8014 53.8778L66.3469 53.7713C66.0971 53.7121 65.9136 53.6204 65.7964 53.4961C65.6804 53.3706 65.6224 53.2138 65.6224 53.0256C65.6224 52.8717 65.6656 52.7356 65.752 52.6172C65.8396 52.4988 65.9586 52.4059 66.1089 52.3384C66.2604 52.271 66.4321 52.2372 66.6238 52.2372C66.8937 52.2372 67.1056 52.2964 67.2595 52.4148C67.4146 52.5331 67.5247 52.6894 67.5898 52.8835Z" fill="#CAC7C7"/>
</g>
<path d="M28.008 47V45.92C28.32 45.92 28.752 45.884 29.304 45.812C29.856 45.74 30.372 45.584 30.852 45.344V21.656C30.54 21.536 30.168 21.476 29.736 21.476C29.328 21.452 28.956 21.464 28.62 21.512L28.296 20.576L33.048 18.596L33.768 19.1V33.176C34.32 32.768 34.932 32.348 35.604 31.916C36.3 31.46 37.02 31.076 37.764 30.764C38.508 30.452 39.228 30.296 39.924 30.296C40.356 30.296 40.848 30.368 41.4 30.512C41.976 30.656 42.54 30.98 43.092 31.484C43.524 31.868 43.872 32.396 44.136 33.068C44.424 33.74 44.568 34.616 44.568 35.696V45.344C45.048 45.584 45.564 45.74 46.116 45.812C46.668 45.884 47.1 45.92 47.412 45.92V47H38.808V45.92C39.12 45.92 39.552 45.884 40.104 45.812C40.656 45.74 41.172 45.584 41.652 45.344V36.596C41.652 35.996 41.628 35.48 41.58 35.048C41.532 34.616 41.388 34.208 41.148 33.824C40.884 33.392 40.524 33.068 40.068 32.852C39.636 32.636 39.144 32.528 38.592 32.528C37.584 32.528 36.66 32.792 35.82 33.32C35.004 33.824 34.32 34.292 33.768 34.724V45.344C34.248 45.584 34.764 45.74 35.316 45.812C35.868 45.884 36.3 45.92 36.612 45.92V47H28.008ZM48.8557 47V45.92C49.1677 45.92 49.5997 45.884 50.1517 45.812C50.7037 45.74 51.2197 45.584 51.6997 45.344V33.14C51.3877 33.02 51.0157 32.96 50.5837 32.96C50.1757 32.936 49.8037 32.948 49.4677 32.996L49.1437 32.06L53.8957 30.08L54.6157 30.584V45.344C55.0957 45.584 55.6117 45.74 56.1637 45.812C56.7157 45.884 57.1477 45.92 57.4597 45.92V47H48.8557ZM53.1037 26.66C52.5277 26.66 52.0477 26.48 51.6637 26.12C51.3037 25.736 51.1237 25.256 51.1237 24.68C51.1237 24.152 51.3037 23.684 51.6637 23.276C52.0477 22.868 52.5277 22.664 53.1037 22.664C53.6797 22.664 54.1597 22.856 54.5437 23.24C54.9277 23.624 55.1197 24.092 55.1197 24.644C55.1197 25.172 54.9277 25.64 54.5437 26.048C54.1597 26.456 53.6797 26.66 53.1037 26.66ZM58.8383 47V45.92C59.1503 45.92 59.5823 45.884 60.1343 45.812C60.6863 45.74 61.2023 45.584 61.6823 45.344V33.14C61.3703 33.02 60.9983 32.96 60.5663 32.96C60.1583 32.936 59.7863 32.948 59.4503 32.996L59.1263 32.06L63.8783 30.08L64.5983 30.584V32.996C65.1263 32.588 65.7143 32.18 66.3623 31.772C67.0343 31.364 67.7183 31.016 68.4143 30.728C69.1343 30.44 69.8303 30.296 70.5023 30.296C70.9343 30.296 71.4263 30.368 71.9783 30.512C72.5543 30.656 73.1183 30.98 73.6703 31.484C74.1023 31.868 74.4503 32.396 74.7143 33.068C75.0023 33.74 75.1463 34.616 75.1463 35.696V45.344C75.6263 45.584 76.1423 45.74 76.6943 45.812C77.2463 45.884 77.6783 45.92 77.9903 45.92V47H69.6743V45.92C69.9383 45.92 70.3223 45.884 70.8263 45.812C71.3303 45.74 71.7983 45.584 72.2303 45.344V36.596C72.2303 35.996 72.2063 35.48 72.1583 35.048C72.1103 34.616 71.9663 34.208 71.7263 33.824C71.4623 33.392 71.1023 33.068 70.6463 32.852C70.2143 32.636 69.7223 32.528 69.1703 32.528C68.2343 32.528 67.3703 32.756 66.5783 33.212C65.8103 33.668 65.1503 34.112 64.5983 34.544V45.344C65.0783 45.584 65.5943 45.74 66.1463 45.812C66.6983 45.884 67.1303 45.92 67.4423 45.92V47H58.8383ZM86.6332 42.824C85.7932 42.824 85.0012 42.656 84.2572 42.32C83.9692 42.56 83.7412 42.812 83.5732 43.076C83.4052 43.316 83.3212 43.58 83.3212 43.868C83.3212 44.3 83.5972 44.624 84.1492 44.84C84.7012 45.032 85.4452 45.176 86.3812 45.272C87.3172 45.368 88.3732 45.5 89.5492 45.668C90.5812 45.812 91.5652 46.04 92.5012 46.352C93.4372 46.64 94.1932 47.096 94.7692 47.72C95.3692 48.368 95.6692 49.256 95.6692 50.384C95.6692 51.704 95.2612 52.88 94.4452 53.912C93.6532 54.944 92.6092 55.748 91.3132 56.324C90.0412 56.924 88.6732 57.224 87.2092 57.224C85.9372 57.224 84.7372 57.056 83.6092 56.72C82.4812 56.384 81.5572 55.856 80.8372 55.136C80.1412 54.44 79.7932 53.54 79.7932 52.436C79.7932 51.692 79.9852 51.02 80.3692 50.42C80.7772 49.82 81.2812 49.28 81.8812 48.8C82.4812 48.32 83.0932 47.876 83.7172 47.468C82.8532 47.252 82.1332 46.928 81.5572 46.496C80.9812 46.064 80.6932 45.512 80.6932 44.84C80.6932 44.24 80.9572 43.688 81.4852 43.184C82.0372 42.656 82.6252 42.188 83.2492 41.78C82.4332 41.228 81.7732 40.496 81.2692 39.584C80.7652 38.672 80.5132 37.688 80.5132 36.632C80.5132 35.48 80.7772 34.424 81.3052 33.464C81.8332 32.504 82.5532 31.736 83.4652 31.16C84.3772 30.584 85.4092 30.296 86.5612 30.296C87.5452 30.296 88.4452 30.512 89.2612 30.944C90.1012 31.352 90.7972 31.892 91.3492 32.564L95.9212 32.06L95.6332 34.364L92.3572 34.328C92.6212 35.024 92.7532 35.744 92.7532 36.488C92.7532 37.664 92.4652 38.732 91.8892 39.692C91.3372 40.652 90.5932 41.42 89.6572 41.996C88.7452 42.548 87.7372 42.824 86.6332 42.824ZM89.9452 37.064C89.9452 36.224 89.7772 35.42 89.4412 34.652C89.1052 33.884 88.6612 33.26 88.1092 32.78C87.5812 32.276 86.9812 32.024 86.3092 32.024C85.3492 32.024 84.6052 32.456 84.0772 33.32C83.5732 34.16 83.3212 35.12 83.3212 36.2C83.3212 37.04 83.4892 37.844 83.8252 38.612C84.1612 39.356 84.6052 39.968 85.1572 40.448C85.7332 40.928 86.3452 41.168 86.9932 41.168C87.6172 41.168 88.1452 40.976 88.5772 40.592C89.0332 40.184 89.3692 39.668 89.5852 39.044C89.8252 38.396 89.9452 37.736 89.9452 37.064ZM82.6372 51.968C82.6372 52.76 82.8892 53.432 83.3932 53.984C83.8972 54.56 84.5332 54.992 85.3012 55.28C86.0692 55.568 86.8372 55.712 87.6052 55.712C89.0932 55.712 90.3412 55.304 91.3492 54.488C92.3812 53.696 92.8972 52.64 92.8972 51.32C92.8972 50.6 92.7052 50.036 92.3212 49.628C91.9612 49.244 91.4812 48.956 90.8812 48.764C90.3052 48.572 89.6932 48.428 89.0452 48.332C88.4452 48.236 87.8212 48.14 87.1732 48.044C86.5492 47.972 85.8532 47.876 85.0852 47.756C84.1732 48.452 83.5372 49.148 83.1772 49.844C82.8172 50.564 82.6372 51.272 82.6372 51.968Z" fill="#F6F0F0"/>
<path d="M118.6 47.2C118.033 47.2 117.433 47.1333 116.8 47C116.167 46.8833 115.692 46.7333 115.375 46.55L114.85 43.3L115.675 43.15C115.825 43.9667 116.125 44.6667 116.575 45.25C117.042 45.8167 117.658 46.1 118.425 46.1C119.008 46.1 119.5 45.9583 119.9 45.675C120.3 45.3917 120.5 44.975 120.5 44.425C120.5 44.025 120.333 43.6667 120 43.35C119.667 43.0167 119.258 42.7 118.775 42.4C118.292 42.0833 117.8 41.75 117.3 41.4C116.817 41.05 116.408 40.6583 116.075 40.225C115.742 39.775 115.575 39.2417 115.575 38.625C115.575 37.6083 115.942 36.8167 116.675 36.25C117.425 35.6833 118.35 35.4 119.45 35.4C120 35.4 120.492 35.45 120.925 35.55C121.358 35.6333 121.65 35.6917 121.8 35.725L122.175 38.575L121.425 38.7C121.342 38.0167 121.108 37.4833 120.725 37.1C120.358 36.7167 119.892 36.525 119.325 36.525C118.775 36.525 118.317 36.6667 117.95 36.95C117.583 37.2167 117.4 37.6167 117.4 38.15C117.4 38.6333 117.567 39.0417 117.9 39.375C118.25 39.7083 118.675 40.0167 119.175 40.3C119.675 40.5833 120.167 40.8833 120.65 41.2C121.15 41.5167 121.567 41.9083 121.9 42.375C122.25 42.8417 122.425 43.425 122.425 44.125C122.425 45.0417 122.067 45.7833 121.35 46.35C120.65 46.9167 119.733 47.2 118.6 47.2Z" fill="#C52A2A"/>
<path d="M21.9814 47.1452C21.3735 47.5553 20.6861 47.8178 19.9194 47.9329C19.1527 48.048 18.4589 47.9732 17.838 47.7084C17.3284 47.4893 16.8225 47.1269 16.3206 46.6211C15.8462 46.0967 15.2642 45.3233 14.5746 44.3008L6.80177 32.7772L4.60482 34.259L3.73807 32.974C4.06709 32.2696 4.34468 31.4591 4.57085 30.5427C4.79702 29.6262 4.9676 28.6869 5.08258 27.7247C5.19756 26.7626 5.29006 25.9162 5.36007 25.1854L6.44074 24.9993L8.59363 28.1911L14.3554 24.3047L15.9212 26.626L10.1594 30.5124L17.7924 41.8288C18.3702 42.6855 18.8497 43.3069 19.2308 43.6931C19.6209 44.0331 20.0933 44.197 20.648 44.1847C21.1563 44.1635 21.6914 43.9433 22.2531 43.5242C22.8424 43.0865 23.3668 42.6122 23.8263 42.1012C24.2948 41.544 24.6068 41.1124 24.7623 40.8065L26.0416 41.4513C25.7235 42.47 25.2621 43.4849 24.6574 44.4959C24.0617 45.4606 23.1697 46.3437 21.9814 47.1452Z" fill="#C52A2A"/>
<circle cx="105.5" cy="41.5" r="2.5" fill="#E7E7E7"/>
<circle cx="52.5" cy="24.5" r="3.5" fill="#1815A9"/>
<defs>
<filter id="filter0_di_545_3" x="29.4404" y="35.25" width="58.1991" height="44.8295" filterUnits="userSpaceOnUse" color-interpolation-filters="sRGB">
<feFlood flood-opacity="0" result="BackgroundImageFix"/>
<feColorMatrix in="SourceAlpha" type="matrix" values="0 0 0 0 0 0 0 0 0 0 0 0 0 0 0 0 0 0 127 0" result="hardAlpha"/>
<feOffset dy="4"/>
<feGaussianBlur stdDeviation="10"/>
<feComposite in2="hardAlpha" operator="out"/>
<feColorMatrix type="matrix" values="0 0 0 0 0.622038 0 0 0 0 0.285819 0 0 0 0 0.285819 0 0 0 0.25 0"/>
<feBlend mode="normal" in2="BackgroundImageFix" result="effect1_dropShadow_545_3"/>
<feBlend mode="normal" in="SourceGraphic" in2="effect1_dropShadow_545_3" result="shape"/>
<feColorMatrix in="SourceAlpha" type="matrix" values="0 0 0 0 0 0 0 0 0 0 0 0 0 0 0 0 0 0 127 0" result="hardAlpha"/>
<feOffset dx="5" dy="4"/>
<feGaussianBlur stdDeviation="11.5"/>
<feComposite in2="hardAlpha" operator="arithmetic" k2="-1" k3="1"/>
<feColorMatrix type="matrix" values="0 0 0 0 0.300098 0 0 0 0 0.295194 0 0 0 0 0.295194 0 0 0 0.25 0"/>
<feBlend mode="normal" in2="shape" result="effect2_innerShadow_545_3"/>
</filter>
</defs>
</svg>
